<svg xmlns="http://www.w3.org/2000/svg" viewBox="0 0 23 730" xml:space="preserve"><linearGradient id="a" gradientUnits="userSpaceOnUse" x1="3930.378" y1="-1202.688" x2="3930.378" y2="-1180.627" gradientTransform="rotate(-90 2928.094 1724.937)"><stop offset=".1"/><stop offset=".334" stop-color="#212121"/><stop offset=".5" stop-color="#333"/><stop offset=".666" stop-color="#212121"/><stop offset=".9"/></linearGradient><path fill="url(#a)" d="M14.07 729.36c2.73 0 5.13-1.81 5.89-4.43l2.58-8.98H.47l2.58 8.98a6.12 6.12 0 0 0 5.89 4.43h5.13z"/><linearGradient id="b" gradientUnits="userSpaceOnUse" x1="4423.864" y1="-1199.556" x2="4423.864" y2="-1183.751" gradientTransform="rotate(-90 2928.094 1724.937)"><stop offset=".05" stop-color="#483a1d"/><stop offset=".059" stop-color="#4d3e1f"/><stop offset=".153" stop-color="#7d6432"/><stop offset=".2" stop-color="#8f7339"/><stop offset=".31" stop-color="#bd984b"/><stop offset=".437" stop-color="#edbd5f"/><stop offset=".5" stop-color="#fc6"/><stop offset=".563" stop-color="#edbd5f"/><stop offset=".69" stop-color="#bd984b"/><stop offset=".8" stop-color="#8f7339"/><stop offset=".95" stop-color="#483a1d"/></linearGradient><path fill="url(#b)" d="M16.41 24.74c-1.63-.73-3.43-1.14-5.34-1.14-1.58 0-3.09.28-4.49.79-.42 60.18-1.63 224.93-2.98 380.02l2.81-37.78 5.06 68.11 5.06-68.11 2.87 38.65c-1.34-155.05-2.55-319.96-2.99-380.54z"/><linearGradient id="c" gradientUnits="userSpaceOnUse" x1="4111.123" y1="-1203.088" x2="4111.123" y2="-1180.226" gradientTransform="rotate(-90 2928.094 1724.937)"><stop offset=".05" stop-color="#260000"/><stop offset=".122" stop-color="#3b0000"/><stop offset=".2" stop-color="#4d0000"/><stop offset=".234" stop-color="#570000"/><stop offset=".412" stop-color="#870000"/><stop offset=".5" stop-color="#900"/><stop offset=".588" stop-color="#870000"/><stop offset=".766" stop-color="#570000"/><stop offset=".8" stop-color="#4d0000"/><stop offset=".95" stop-color="#260000"/></linearGradient><path fill="url(#c)" d="M1.2 717.19h20.59c.64 0 1.15-.52 1.14-1.16-.99-41.1-2.31-171.97-3.52-310.75l-2.87-38.65-5.06 68.11-5.06-68.11-2.82 37.78C2.39 543.51 1.06 674.84.07 716.03c-.02.64.5 1.16 1.13 1.16z"/><path fill-opacity=".3" d="M11.08 23.6c-1.58 0-3.09.28-4.48.79v.68c1.4-.51 2.91-.79 4.49-.79 1.9 0 3.71.41 5.34 1.14v-.68c-1.65-.73-3.45-1.14-5.35-1.14z"/><linearGradient id="d" gradientUnits="userSpaceOnUse" x1="1286.262" y1="38.027" x2="1296.086" y2="38.027" gradientTransform="translate(-1279.673 -23.95)"><stop offset="0" stop-color="#999"/><stop offset=".5" stop-color="#fff"/><stop offset="1" stop-color="#999"/></linearGradient><path fill="url(#d)" d="M6.59 24.39c1.4-.51 2.91-.79 4.49-.79 1.9 0 3.71.41 5.34 1.14-.07-9.34-.12-16.2-.14-20.16 0-.03 0-.06-.01-.09a12.992 12.992 0 0 0-9.51-.34c-.02.14-.03.28-.03.43-.03 3.91-.08 10.65-.14 19.81z"/><linearGradient id="e" gradientUnits="userSpaceOnUse" x1="11.501" y1="24.742" x2="11.501" y2="3.412"><stop offset="0" stop-color="#999"/><stop offset="1" stop-color="#fff"/></linearGradient><path fill="url(#e)" d="M11.08 4.09c1.56 0 3.08.29 4.52.85v.44l.13 18.36c-1.49-.54-3.05-.81-4.65-.81-1.3 0-2.57.18-3.81.54l.14-18.83c1.18-.37 2.42-.55 3.67-.55m0-.68c-1.51 0-2.97.26-4.32.74-.02.14-.03.28-.03.43-.03 3.91-.07 10.65-.14 19.81 1.4-.51 2.91-.79 4.49-.79 1.9 0 3.71.41 5.34 1.14-.07-9.34-.12-16.2-.14-20.16 0-.03 0-.06-.01-.09-1.6-.69-3.35-1.08-5.19-1.08z"/><linearGradient id="f" gradientUnits="userSpaceOnUse" x1="1286.431" y1="26.515" x2="1295.937" y2="26.515" gradientTransform="translate(-1279.673 -23.95)"><stop offset="0" stop-color="#134a70"/><stop offset=".137" stop-color="#1a6497"/><stop offset=".295" stop-color="#207ebf"/><stop offset=".422" stop-color="#248ed7"/><stop offset=".5" stop-color="#2694e0"/><stop offset=".578" stop-color="#248ed7"/><stop offset=".705" stop-color="#207ebf"/><stop offset=".864" stop-color="#1a6497"/><stop offset="1" stop-color="#134a70"/></linearGradient><path fill="url(#f)" d="M11.51.64C7.1.64 6.76 4.15 6.76 4.15c1.35-.47 2.8-.74 4.32-.74 1.84 0 3.6.38 5.19 1.08-.01 0-.27-3.85-4.76-3.85z"/><linearGradient id="g" gradientUnits="userSpaceOnUse" x1="11.511" y1="4.487" x2="11.511" y2=".642"><stop offset="0" stop-color="#134a70"/><stop offset=".143" stop-color="#144f75"/><stop offset=".316" stop-color="#175c84"/><stop offset=".505" stop-color="#1d739d"/><stop offset=".706" stop-color="#2592bf"/><stop offset=".914" stop-color="#2eb9eb"/><stop offset="1" stop-color="#3cf"/></linearGradient><path fill="url(#g)" d="M11.51 1.32c2.34 0 3.34 1.15 3.77 2.08-1.35-.44-2.76-.66-4.2-.66-1.11 0-2.2.13-3.27.39.46-.82 1.48-1.81 3.7-1.81m0-.68C7.13.64 6.76 4.1 6.76 4.15c1.35-.47 2.8-.74 4.32-.74 1.84 0 3.6.38 5.19 1.08-.01 0-.27-3.85-4.76-3.85zM6.76 4.15z"/></svg>