<svg xmlns="http://www.w3.org/2000/svg" viewBox="0 0 1400 716" xml:space="preserve"><path opacity=".05" d="m718.17 408.45-127.58 46.43c-33.93 12.35-51.49 50.01-39.14 83.94l46.43 127.58c12.35 33.93 50.01 51.49 83.94 39.14l127.58-46.43c33.93-12.35 51.49-50.01 39.14-83.94l-46.43-127.58c-12.35-33.93-50-51.49-83.94-39.14zM846.27 576c11.89 32.68-5.02 68.94-37.69 80.83L681 703.27c-32.68 11.89-68.94-5.02-80.83-37.69L553.73 538c-11.89-32.68 5.02-68.94 37.69-80.83L719 410.73c32.68-11.89 68.94 5.02 80.83 37.69L846.27 576z"/><path opacity=".1" d="m719 410.73-127.58 46.43c-32.68 11.89-49.58 48.15-37.69 80.83l46.43 127.58c11.89 32.68 48.15 49.58 80.83 37.69l127.58-46.43c32.68-11.89 49.58-48.15 37.69-80.83l-46.43-127.58c-11.89-32.67-48.15-49.58-80.83-37.69zm124.99 166.1c11.44 31.42-4.82 66.28-36.24 77.72l-127.58 46.43c-31.42 11.44-66.28-4.82-77.72-36.24l-46.43-127.58c-11.44-31.42 4.82-66.28 36.24-77.72l127.58-46.43c31.42-11.44 66.28 4.82 77.72 36.24l46.43 127.58z"/><path opacity=".2" d="m719.83 413.01-127.58 46.43c-31.42 11.44-47.68 46.3-36.24 77.72l46.43 127.58c11.44 31.42 46.3 47.68 77.72 36.24l127.58-46.43c31.42-11.44 47.68-46.3 36.24-77.72l-46.43-127.58c-11.43-31.42-46.3-47.67-77.72-36.24zm121.88 164.65c10.98 30.16-4.63 63.63-34.79 74.61L679.34 698.7c-30.16 10.98-63.63-4.63-74.61-34.79L558.3 536.33c-10.98-30.16 4.63-63.63 34.79-74.61l127.58-46.43c30.16-10.98 63.63 4.63 74.61 34.79l46.43 127.58z"/><path opacity=".3" d="m720.66 415.29-127.58 46.43c-30.16 10.98-45.77 44.45-34.79 74.61l46.43 127.58c10.98 30.16 44.45 45.77 74.61 34.79l127.58-46.43c30.16-10.98 45.77-44.45 34.79-74.61l-46.43-127.58c-10.97-30.16-44.45-45.77-74.61-34.79zm118.77 163.2c10.52 28.91-4.44 60.98-33.34 71.5l-127.58 46.43c-28.91 10.52-60.98-4.44-71.5-33.34L560.58 535.5c-10.52-28.91 4.44-60.98 33.34-71.5l127.58-46.43c28.91-10.52 60.98 4.44 71.5 33.34l46.43 127.58z"/><path d="M721.49 417.57 593.91 464c-28.91 10.52-43.86 42.6-33.34 71.5L607 663.08c10.52 28.91 42.6 43.86 71.5 33.34l127.58-46.43c28.91-10.52 43.86-42.6 33.34-71.5l-46.43-127.58c-10.52-28.9-42.59-43.86-71.5-33.34zM834.3 580.36c9.49 26.08-4 55.02-30.08 64.51L676.64 691.3c-26.08 9.49-55.02-4-64.51-30.08L565.7 533.64c-9.49-26.08 4-55.02 30.08-64.51l127.58-46.43c26.08-9.49 55.02 4 64.51 30.08l46.43 127.58z"/><linearGradient id="a" gradientUnits="userSpaceOnUse" x1="617.581" y1="-1227.364" x2="617.581" y2="-1463.79" gradientTransform="rotate(-19.999 6054.176 -628.104)"><stop offset="0" stop-color="#f90"/><stop offset="1" stop-color="#ff0"/></linearGradient><path fill="url(#a)" d="m723.36 422.7-127.58 46.43c-26.08 9.49-39.57 38.43-30.08 64.51l46.43 127.58c9.49 26.08 38.43 39.57 64.51 30.08l127.58-46.43c26.08-9.49 39.57-38.43 30.08-64.51l-46.43-127.58c-9.5-26.08-38.43-39.57-64.51-30.08zm104.67 159.94c8.21 22.56-3.53 47.75-26.09 55.96l-127.58 46.43c-8.46 3.08-17.29 3.35-25.46 1.3-1.36-.34-2.7-.75-4.02-1.22a43.924 43.924 0 0 1-17.45-11.43 43.394 43.394 0 0 1-9.04-14.75l-46.43-127.58a44.39 44.39 0 0 1-1.31-4.26c-3.24-12.83-.34-26.11 7.06-36.34.82-1.14 1.7-2.24 2.63-3.29 2.8-3.17 6.07-5.96 9.77-8.24a43.48 43.48 0 0 1 7.94-3.84l127.58-46.43c22.56-8.21 47.75 3.53 55.96 26.09l46.44 127.6z"/><path fill="#FC0" d="M725.64 428.97 598.06 475.4a43.797 43.797 0 0 0-7.94 3.84 43.429 43.429 0 0 0-12.4 11.53c-7.4 10.23-10.3 23.5-7.06 36.34.36 1.43.79 2.85 1.31 4.26l46.43 127.58a43.143 43.143 0 0 0 9.04 14.75c2.9 3.11 6.23 5.76 9.85 7.89 2.41 1.42 4.96 2.61 7.6 3.54 1.32.47 2.66.88 4.02 1.22 8.17 2.05 16.99 1.78 25.46-1.3l127.58-46.43c22.56-8.21 34.31-33.39 26.09-55.96l-46.44-127.6c-8.21-22.56-33.4-34.31-55.96-26.09z"/><radialGradient id="b" cx="2758.634" cy="-1070.66" r="60.388" gradientTransform="rotate(-20 9291.497 10441.836) scale(1.6671)" gradientUnits="userSpaceOnUse"><stop offset=".55" stop-color="#404040"/><stop offset=".98" stop-color="#131313"/></radialGradient><circle fill="url(#b)" cx="700.16" cy="557.44" r="100.68"/><circle fill="#FFF" cx="700.16" cy="557.44" r="49.64"/><path d="M676.45 552.49c-.99-2.72-1.19-5.47-.59-8.23.6-2.76 2.09-5.33 4.48-7.71 2.39-2.38 5.68-4.34 9.87-5.86 4.19-1.52 7.95-2.14 11.29-1.84 3.34.3 6.12 1.32 8.35 3.05 2.23 1.73 3.84 3.96 4.83 6.68s1.21 5.33.66 7.82c-.55 2.49-1.7 4.71-3.45 6.66 3.2.32 5.95 1.36 8.25 3.12s4.01 4.18 5.13 7.26c1.3 3.58 1.52 7 .65 10.26s-2.61 6.13-5.22 8.63c-2.61 2.49-5.8 4.43-9.59 5.8-3.78 1.38-7.48 1.95-11.08 1.72-3.6-.23-6.78-1.32-9.54-3.26-2.76-1.94-4.8-4.7-6.1-8.28-1.14-3.13-1.39-6.1-.77-8.93.63-2.83 2.05-5.36 4.26-7.59-5.65-.8-9.47-3.9-11.43-9.3zm20.46 14.54c-1 1.82-1.08 3.86-.25 6.14.77 2.12 2.12 3.6 4.06 4.44 1.93.84 4.11.82 6.53-.06 2.42-.88 4.08-2.26 4.97-4.12.89-1.87.95-3.86.18-5.98-.81-2.22-2.17-3.72-4.08-4.51-1.92-.79-4.03-.76-6.35.08-2.38.85-4.07 2.19-5.06 4.01zm2.38-26.06c-1.6-.7-3.38-.7-5.35.02-1.97.72-3.33 1.87-4.1 3.46-.76 1.59-.77 3.42-.02 5.49.72 1.97 1.89 3.3 3.51 3.99s3.39.69 5.31-.01c1.92-.7 3.27-1.85 4.06-3.45.79-1.6.82-3.39.11-5.35-.74-2.06-1.92-3.45-3.52-4.15z"/><linearGradient id="c" gradientUnits="userSpaceOnUse" x1="618.299" y1="-1292.964" x2="618.299" y2="-1435.611" gradientTransform="rotate(-19.999 6054.176 -628.104)"><stop offset=".2" stop-color="#fff" stop-opacity="0"/><stop offset=".9" stop-color="#fff" stop-opacity=".45"/></linearGradient><path fill="url(#c)" d="M772.38 510.74c13.47 37.02-10.57 79.75-53.71 95.45-43.14 15.7-89.03-1.58-102.5-38.59-13.47-37.02 10.57-79.75 53.71-95.45 43.14-15.7 89.03 1.58 102.5 38.59z"/><linearGradient id="d" gradientUnits="userSpaceOnUse" x1="611.002" y1="-1317.057" x2="611.002" y2="-1424.026" gradientTransform="rotate(-19.999 6054.176 -628.104)"><stop offset=".2" stop-color="#fff" stop-opacity="0"/><stop offset=".9" stop-color="#fff" stop-opacity=".65"/></linearGradient><path fill="url(#d)" d="M743.85 514.47c10.1 27.76-7.93 59.8-40.28 71.58-32.35 11.77-66.76-1.18-76.86-28.94s7.93-59.8 40.28-71.58 66.76 1.19 76.86 28.94z"/><linearGradient id="e" gradientUnits="userSpaceOnUse" x1="617.581" y1="-1234.034" x2="617.581" y2="-1357.993" gradientTransform="rotate(-19.999 6054.176 -628.104)"><stop offset="0" stop-color="#fff" stop-opacity="0"/><stop offset="1" stop-opacity=".15"/></linearGradient><path fill="url(#e)" d="M700.16 557.43c-39.33 14.32-77.26 23.02-109.22 26.05l27.46 75.46a43.275 43.275 0 0 0 9.03 14.75c2.9 3.11 6.23 5.76 9.85 7.89 2.41 1.42 4.96 2.61 7.6 3.54 1.32.47 2.66.88 4.02 1.22a43.36 43.36 0 0 0 25.46-1.3l127.58-46.43c22.56-8.21 34.31-33.39 26.09-55.96l-27.46-75.46c-26.43 18.21-61.08 35.92-100.41 50.24z"/><path d="m640.38 622.55-25.78-70.82c-2.03-5.57-8.18-8.44-13.75-6.41l-27.29 9.93 33.12 90.98 27.29-9.93c5.56-2.03 8.43-8.19 6.41-13.75z"/><path fill="#FFF" d="M600.87 577.2c-1.21-.36-2.38-1.48-3.93-3.23l-5.98-6.86c-.44-.5-1.14-1.14-1.66-1.39-.73-.35-1.55-.37-3.57.37l-1.1.4 4.42 12.13 4.93-1.79 1.48 4.07-8.58 3.12-7.37-20.26 4.17-1.52c3.8-1.38 5.21-1.41 6.92-.57 1 .48 1.85 1.19 3.26 2.8l6.06 6.96c.9 1.04 1.39 1.22 1.85 1.32.61.13 1.1.18 2.93-.49 1.74-.63 2.38-1.13 2.61-1.66.15-.31.2-.87-.17-1.88l-2.19-6.02c-.43-1.17-.78-1.44-1.15-1.62-.36-.18-.99-.26-4.13.8l-1.57-4.31c4.47-1.53 5.72-2.27 7.24-1.54 1.09.53 1.92 1.31 2.74 3.58l3.02 8.29c.87 2.39.83 3.82.32 4.98-.69 1.54-1.88 2.5-4.96 3.62-2.89 1.04-4 1.19-5.59.7zm19.12 15.12 1.98 5.44-15.4 5.61-3.26 1.19-4.44 1.62 1.75 4.81-3.46 1.26-5.14-14.12 3.46-1.26 1.91 5.24 4.44-1.62-4.62-12.7 3.15-1.12c.99-.36 1.71-.36 2.91-.04l14.23 3.78c1.42.35 2.08.78 2.49 1.91zm-3 1.89-15.26-4.15 3.36 9.23 12.14-4.42-.24-.66zm-10.32 19.1c-.13.31-.09.57.09 1.08l.55 1.5c.18.5.32.73.62.88.36.2.74.2 1.95-.24s1.49-.68 1.65-1.07c.12-.31.09-.57-.1-1.07l-.55-1.5c-.18-.5-.33-.73-.62-.88-.37-.2-.74-.2-1.95.24-1.2.43-1.49.68-1.64 1.06zm-2.85 17.1 9.92-3.62 12.36 1.71 5.06-1.84.73-1.63-6.3-17.32-8.38 3.05 1.5 4.11 4.86-1.77 3.57 9.82-2.69 1.04-12.17-1.83-10.12 3.7 1.66 4.58z"/><g opacity=".25"><path d="M996.78 212.87c14.49 0 27.71 3.16 39.3 9.4 11.84 6.37 21.21 15.34 27.85 26.66.35.6.7 1.21 1.03 1.82l4.62-23.16c1.44-7.22 7.78-12.41 15.14-12.41h36.96c4.62 0 9 2.07 11.93 5.65 2.93 3.57 4.11 8.27 3.21 12.81l-14.98 75.19h33.61c8.53 0 15.43 6.91 15.43 15.44 0 1.19-.13 2.35-.39 3.46l-6.14 30.5a15.43 15.43 0 0 1-15.13 12.39h-89.38c-4.62 0-9-2.07-11.94-5.65a15.432 15.432 0 0 1-3.2-12.81l.31-1.54c-4.9 4.29-10.33 8.06-16.26 11.29-13.67 7.43-28.85 11.2-45.13 11.2-14.52 0-27.76-3.2-39.36-9.52-11.83-6.44-21.19-15.47-27.81-26.84-.27-.45-.53-.91-.78-1.37-7.72 10.99-17.77 19.9-29.95 26.53-13.67 7.43-28.85 11.2-45.13 11.2-14.52 0-27.76-3.2-39.36-9.52-11.83-6.44-21.19-15.47-27.81-26.84a71.459 71.459 0 0 1-7.25-17.39c-4.18 3.59-8.89 6.69-14.09 9.29-11.36 5.68-24.62 8.56-39.42 8.56h-6.92l-4.25 21.03c-1.46 7.2-7.78 12.38-15.13 12.38H649.4c-4.62 0-9-2.07-11.94-5.65a15.432 15.432 0 0 1-3.2-12.81l24.88-124.56c1.44-7.22 7.78-12.41 15.14-12.41h56.68c17.38 0 31.37 4.31 41.59 12.81 5.03 4.19 8.97 9.25 11.76 15.03 6.8-7.72 14.96-14.14 24.41-19.18 13.64-7.28 28.79-10.97 45.03-10.97 14.49 0 27.71 3.16 39.3 9.4 11.84 6.37 21.21 15.34 27.85 26.66.26.44.51.88.75 1.32 7.75-11 17.85-19.87 30.1-26.4 13.64-7.3 28.79-10.99 45.03-10.99m0-8c-17.57 0-33.98 4.01-48.79 11.91-9.86 5.26-18.46 11.93-25.7 19.9-6.76-8.8-15.29-16-25.45-21.46-12.77-6.87-27.27-10.35-43.09-10.35-17.57 0-33.98 4.01-48.79 11.91-7.03 3.75-13.46 8.25-19.2 13.42a53.162 53.162 0 0 0-8.08-8.36c-11.7-9.73-27.41-14.66-46.71-14.66h-56.68c-11.14 0-20.8 7.93-22.98 18.85l-24.88 124.56c-1.38 6.91.39 14 4.86 19.45a23.35 23.35 0 0 0 18.12 8.58h36.96c11.11 0 20.77-7.9 22.97-18.79l2.95-14.61h.37c16.05 0 30.52-3.16 43-9.4 2.25-1.12 4.42-2.34 6.51-3.64 1.27 2.96 2.72 5.83 4.33 8.61 7.37 12.65 17.77 22.69 30.9 29.84 12.78 6.96 27.31 10.49 43.18 10.49 17.63 0 34.1-4.1 48.96-12.18 9.76-5.31 18.29-11.99 25.48-19.94 6.75 8.85 15.27 16.11 25.42 21.63 12.78 6.96 27.31 10.49 43.18 10.49 17.63 0 34.1-4.1 48.96-12.18 2.09-1.14 4.14-2.35 6.13-3.62.8 1.67 1.81 3.26 3.02 4.73a23.35 23.35 0 0 0 18.12 8.58h89.38c11.12 0 20.78-7.91 22.98-18.82l6.12-30.41c.37-1.68.56-3.4.56-5.13 0-12.92-10.51-23.44-23.43-23.44h-23.85l13.07-65.62c1.38-6.91-.4-14-4.87-19.45a23.341 23.341 0 0 0-18.12-8.57h-36.96c-11.14 0-20.8 7.93-22.98 18.85l-1.04 5.2c-5.9-6.36-12.87-11.72-20.84-16.01-12.77-6.88-27.27-10.36-43.09-10.36z"/><path d="M1155.45 308.82h-33.6l14.98-75.19c.9-4.53-.27-9.23-3.21-12.81a15.446 15.446 0 0 0-11.93-5.65h-36.96c-7.36 0-13.7 5.2-15.14 12.41l-4.62 23.16c-.34-.61-.68-1.22-1.03-1.82-6.64-11.32-16.01-20.29-27.85-26.66-11.59-6.24-24.82-9.4-39.3-9.4-16.24 0-31.39 3.69-45.03 10.97-12.25 6.54-22.35 15.41-30.1 26.4l-.75-1.32c-6.64-11.32-16.01-20.29-27.85-26.66-11.59-6.24-24.82-9.4-39.3-9.4-16.24 0-31.39 3.69-45.03 10.97-9.44 5.04-17.61 11.46-24.41 19.18-2.78-5.78-6.72-10.84-11.76-15.03-10.22-8.5-24.22-12.81-41.59-12.81h-56.68c-7.36 0-13.7 5.2-15.14 12.41l-24.88 124.56c-.91 4.53.27 9.24 3.2 12.81 2.93 3.58 7.31 5.65 11.94 5.65h36.96c7.35 0 13.68-5.18 15.13-12.38l4.25-21.03h6.92c14.8 0 28.06-2.88 39.42-8.56 5.2-2.6 9.91-5.71 14.09-9.29a70.842 70.842 0 0 0 7.25 17.39c6.63 11.37 15.98 20.4 27.81 26.84 11.6 6.31 24.84 9.52 39.36 9.52 16.28 0 31.47-3.77 45.13-11.2 12.18-6.62 22.23-15.53 29.95-26.53.25.46.51.92.78 1.37 6.63 11.37 15.98 20.41 27.81 26.84 11.6 6.31 24.84 9.52 39.36 9.52 16.28 0 31.47-3.77 45.13-11.2 5.93-3.23 11.36-7 16.26-11.29l-.31 1.54c-.91 4.53.27 9.24 3.2 12.81 2.93 3.58 7.31 5.65 11.94 5.65h89.38c7.35 0 13.68-5.19 15.13-12.39l6.14-30.5c.25-1.11.39-2.27.39-3.46 0-8.51-6.91-15.42-15.44-15.42z"/><path d="M996.78 218.37c13.57 0 25.91 2.94 36.69 8.74 10.94 5.89 19.59 14.17 25.72 24.6.33.56.64 1.12.95 1.68l7.26 13.26 2.96-14.82 4.62-23.16c.92-4.63 5.02-7.99 9.74-7.99h36.96a9.88 9.88 0 0 1 7.68 3.63 9.886 9.886 0 0 1 2.06 8.24l-14.98 75.19-1.31 6.57h40.3c5.48 0 9.93 4.46 9.93 9.94 0 .75-.08 1.5-.25 2.23l-.02.07-.01.07-6.14 30.5c-.93 4.62-5.03 7.98-9.74 7.98h-89.38a9.89 9.89 0 0 1-7.68-3.64 9.874 9.874 0 0 1-2.06-8.25l.31-1.54 3.17-15.89-12.19 10.67c-4.58 4.01-9.72 7.58-15.27 10.59-12.85 6.99-27.15 10.54-42.51 10.54-13.59 0-25.95-2.98-36.73-8.85-10.93-5.95-19.58-14.28-25.69-24.78-.24-.42-.48-.84-.72-1.27l-4.26-7.69-5.05 7.2c-7.22 10.29-16.67 18.65-28.07 24.85-12.85 6.99-27.15 10.54-42.51 10.54-13.59 0-25.95-2.98-36.73-8.85-10.93-5.95-19.58-14.28-25.69-24.78-2.91-5-5.16-10.4-6.69-16.05l-2.27-8.42-6.62 5.67c-3.83 3.29-8.2 6.16-12.97 8.55-10.59 5.29-23.02 7.98-36.96 7.98h-11.42l-.89 4.41-4.25 21.03c-.93 4.62-5.03 7.97-9.74 7.97h-36.96a9.89 9.89 0 0 1-7.68-3.64 9.874 9.874 0 0 1-2.06-8.25l24.88-124.56c.92-4.63 5.02-7.99 9.75-7.99h56.68c16.06 0 28.87 3.88 38.07 11.54 4.4 3.66 7.87 8.1 10.32 13.19l3.6 7.48 5.49-6.23c6.35-7.21 14.04-13.25 22.87-17.96 12.83-6.85 27.11-10.32 42.44-10.32 13.57 0 25.91 2.94 36.69 8.74 10.94 5.89 19.59 14.17 25.72 24.6.24.4.47.81.7 1.22l4.26 7.64 5.04-7.15c7.24-10.28 16.73-18.6 28.19-24.72 12.85-6.84 27.12-10.31 42.45-10.31m0-5.5c-16.24 0-31.39 3.69-45.03 10.97-12.25 6.54-22.35 15.41-30.1 26.4l-.75-1.32c-6.64-11.32-16.01-20.29-27.85-26.66-11.59-6.24-24.82-9.4-39.3-9.4-16.24 0-31.39 3.69-45.03 10.97-9.44 5.04-17.61 11.46-24.41 19.18-2.78-5.78-6.72-10.84-11.76-15.03-10.22-8.5-24.22-12.81-41.59-12.81h-56.68c-7.36 0-13.7 5.2-15.14 12.41l-24.88 124.56c-.91 4.53.27 9.24 3.2 12.81 2.93 3.58 7.31 5.65 11.94 5.65h36.96c7.35 0 13.68-5.18 15.13-12.38l4.25-21.03h6.92c14.8 0 28.06-2.88 39.42-8.56 5.2-2.6 9.91-5.71 14.09-9.29a70.842 70.842 0 0 0 7.25 17.39c6.63 11.37 15.98 20.41 27.81 26.84 11.6 6.31 24.84 9.52 39.36 9.52 16.28 0 31.47-3.77 45.13-11.2 12.18-6.62 22.23-15.53 29.95-26.53.25.46.51.92.78 1.37 6.63 11.37 15.98 20.41 27.81 26.84 11.6 6.31 24.84 9.52 39.36 9.52 16.28 0 31.47-3.77 45.13-11.2 5.93-3.23 11.36-7 16.26-11.29l-.31 1.54c-.91 4.53.27 9.24 3.2 12.81 2.93 3.58 7.31 5.65 11.94 5.65h89.38c7.35 0 13.68-5.19 15.13-12.39l6.14-30.5c.25-1.11.39-2.27.39-3.46 0-8.53-6.91-15.44-15.43-15.44h-33.61l14.98-75.19c.9-4.53-.27-9.23-3.21-12.81a15.446 15.446 0 0 0-11.93-5.65h-36.96c-7.36 0-13.7 5.2-15.14 12.41l-4.62 23.16c-.34-.61-.68-1.22-1.03-1.82-6.64-11.32-16.01-20.29-27.85-26.66-11.59-6.22-24.81-9.38-39.3-9.38z"/></g><path d="M1004.78 204.87c14.49 0 27.71 3.16 39.3 9.4 11.84 6.37 21.21 15.34 27.85 26.66.35.6.7 1.21 1.03 1.82l4.62-23.16c1.44-7.22 7.78-12.41 15.14-12.41h36.96c4.62 0 9 2.07 11.93 5.65 2.93 3.57 4.11 8.27 3.21 12.81l-14.98 75.19h33.61c8.53 0 15.43 6.91 15.43 15.44 0 1.19-.13 2.35-.39 3.46l-6.14 30.5a15.43 15.43 0 0 1-15.13 12.39h-89.38c-4.62 0-9-2.07-11.94-5.65a15.432 15.432 0 0 1-3.2-12.81l.31-1.54c-4.9 4.29-10.33 8.06-16.26 11.29-13.67 7.43-28.85 11.2-45.13 11.2-14.52 0-27.76-3.2-39.36-9.52-11.83-6.44-21.19-15.47-27.81-26.84-.27-.45-.53-.91-.78-1.37-7.72 10.99-17.77 19.9-29.95 26.53-13.67 7.43-28.85 11.2-45.13 11.2-14.52 0-27.76-3.2-39.36-9.52-11.83-6.44-21.19-15.47-27.81-26.84a71.459 71.459 0 0 1-7.25-17.39c-4.18 3.59-8.89 6.69-14.09 9.29-11.36 5.68-24.62 8.56-39.42 8.56h-6.92l-4.25 21.03c-1.46 7.2-7.78 12.38-15.13 12.38H657.4c-4.62 0-9-2.07-11.94-5.65a15.432 15.432 0 0 1-3.2-12.81l24.88-124.56c1.44-7.22 7.78-12.41 15.14-12.41h56.68c17.38 0 31.37 4.31 41.59 12.81 5.03 4.19 8.97 9.25 11.76 15.03 6.8-7.72 14.96-14.14 24.41-19.18 13.64-7.28 28.79-10.97 45.03-10.97 14.49 0 27.71 3.16 39.3 9.4 11.84 6.37 21.21 15.34 27.85 26.66.26.44.51.88.75 1.32 7.75-11 17.85-19.87 30.1-26.4 13.64-7.3 28.79-10.99 45.03-10.99m0-8c-17.57 0-33.98 4.01-48.79 11.91-9.86 5.26-18.46 11.93-25.7 19.9-6.76-8.8-15.29-16-25.45-21.46-12.77-6.87-27.27-10.35-43.09-10.35-17.57 0-33.98 4.01-48.79 11.91-7.03 3.75-13.46 8.25-19.2 13.42a53.162 53.162 0 0 0-8.08-8.36c-11.7-9.73-27.41-14.66-46.71-14.66h-56.68c-11.14 0-20.8 7.93-22.98 18.85l-24.88 124.56c-1.38 6.91.39 14 4.86 19.45a23.35 23.35 0 0 0 18.12 8.58h36.96c11.11 0 20.77-7.9 22.97-18.79l2.95-14.61h.37c16.05 0 30.52-3.16 43-9.4 2.25-1.12 4.42-2.34 6.51-3.64 1.27 2.96 2.72 5.83 4.33 8.61 7.37 12.65 17.77 22.69 30.9 29.84 12.78 6.96 27.31 10.49 43.18 10.49 17.63 0 34.1-4.1 48.96-12.18 9.76-5.31 18.29-11.99 25.48-19.94 6.75 8.85 15.27 16.11 25.42 21.63 12.78 6.96 27.31 10.49 43.18 10.49 17.63 0 34.1-4.1 48.96-12.18 2.09-1.14 4.14-2.35 6.13-3.62.8 1.67 1.81 3.26 3.02 4.73a23.35 23.35 0 0 0 18.12 8.58h89.38c11.12 0 20.78-7.91 22.98-18.82l6.12-30.41c.37-1.68.56-3.4.56-5.13 0-12.92-10.51-23.44-23.43-23.44h-23.85l13.07-65.62c1.38-6.91-.4-14-4.87-19.45a23.341 23.341 0 0 0-18.12-8.57h-36.96c-11.14 0-20.8 7.93-22.98 18.85l-1.04 5.2c-5.9-6.36-12.87-11.72-20.84-16.01-12.77-6.88-27.27-10.36-43.09-10.36z"/><linearGradient id="f" gradientUnits="userSpaceOnUse" x1="910.43" y1="204.872" x2="910.43" y2="365.101"><stop offset="0" stop-color="#fc0"/><stop offset=".5" stop-color="#ff0"/><stop offset=".5" stop-color="#f90"/><stop offset="1" stop-color="#fc0"/></linearGradient><path fill="url(#f)" d="M1163.45 300.82h-33.6l14.98-75.19c.9-4.53-.27-9.23-3.21-12.81a15.446 15.446 0 0 0-11.93-5.65h-36.96c-7.36 0-13.7 5.2-15.14 12.41l-4.62 23.16c-.34-.61-.68-1.22-1.03-1.82-6.64-11.32-16.01-20.29-27.85-26.66-11.59-6.24-24.82-9.4-39.3-9.4-16.24 0-31.39 3.69-45.03 10.97-12.25 6.54-22.35 15.41-30.1 26.4l-.75-1.32c-6.64-11.32-16.01-20.29-27.85-26.66-11.59-6.24-24.82-9.4-39.3-9.4-16.24 0-31.39 3.69-45.03 10.97-9.44 5.04-17.61 11.46-24.41 19.18-2.78-5.78-6.72-10.84-11.76-15.03-10.22-8.5-24.22-12.81-41.59-12.81h-56.68c-7.36 0-13.7 5.2-15.14 12.41l-24.88 124.56c-.91 4.53.27 9.24 3.2 12.81 2.93 3.58 7.31 5.65 11.94 5.65h36.96c7.35 0 13.68-5.18 15.13-12.38l4.25-21.03h6.92c14.8 0 28.06-2.88 39.42-8.56 5.2-2.6 9.91-5.71 14.09-9.29a70.842 70.842 0 0 0 7.25 17.39c6.63 11.37 15.98 20.4 27.81 26.84 11.6 6.31 24.84 9.52 39.36 9.52 16.28 0 31.47-3.77 45.13-11.2 12.18-6.62 22.23-15.53 29.95-26.53.25.46.51.92.78 1.37 6.63 11.37 15.98 20.41 27.81 26.84 11.6 6.31 24.84 9.52 39.36 9.52 16.28 0 31.47-3.77 45.13-11.2 5.93-3.23 11.36-7 16.26-11.29l-.31 1.54c-.91 4.53.27 9.24 3.2 12.81 2.93 3.58 7.31 5.65 11.94 5.65h89.38c7.35 0 13.68-5.19 15.13-12.39l6.14-30.5c.25-1.11.39-2.27.39-3.46 0-8.51-6.91-15.42-15.44-15.42z"/><linearGradient id="g" gradientUnits="userSpaceOnUse" x1="910.43" y1="365.101" x2="910.43" y2="204.872"><stop offset="0" stop-color="#ff0"/><stop offset="1" stop-color="#f90"/></linearGradient><path fill="url(#g)" d="M1004.78 210.37c13.57 0 25.91 2.94 36.69 8.74 10.94 5.89 19.59 14.17 25.72 24.6.33.56.64 1.12.95 1.68l7.26 13.26 2.96-14.82 4.62-23.16c.92-4.63 5.02-7.99 9.74-7.99h36.96a9.88 9.88 0 0 1 7.68 3.63 9.886 9.886 0 0 1 2.06 8.24l-14.98 75.19-1.31 6.57h40.3c5.48 0 9.93 4.46 9.93 9.94 0 .75-.08 1.5-.25 2.23l-.02.07-.01.07-6.14 30.5c-.93 4.62-5.03 7.98-9.74 7.98h-89.38a9.89 9.89 0 0 1-7.68-3.64 9.874 9.874 0 0 1-2.06-8.25l.31-1.54 3.17-15.89-12.19 10.67c-4.58 4.01-9.72 7.58-15.27 10.59-12.85 6.99-27.15 10.54-42.51 10.54-13.59 0-25.95-2.98-36.73-8.85-10.93-5.95-19.58-14.28-25.69-24.78-.24-.42-.48-.84-.72-1.27l-4.26-7.69-5.05 7.2c-7.22 10.29-16.67 18.65-28.07 24.85-12.85 6.99-27.15 10.54-42.51 10.54-13.59 0-25.95-2.98-36.73-8.85-10.93-5.95-19.58-14.28-25.69-24.78-2.91-5-5.16-10.4-6.69-16.05l-2.27-8.42-6.62 5.67c-3.83 3.29-8.2 6.16-12.97 8.55-10.59 5.29-23.02 7.98-36.96 7.98h-11.42l-.89 4.41-4.25 21.03c-.93 4.62-5.03 7.97-9.74 7.97h-36.96a9.89 9.89 0 0 1-7.68-3.64 9.874 9.874 0 0 1-2.06-8.25l24.88-124.56c.92-4.63 5.02-7.99 9.75-7.99h56.68c16.06 0 28.87 3.88 38.07 11.54 4.4 3.66 7.87 8.1 10.32 13.19l3.6 7.48 5.49-6.23c6.35-7.21 14.04-13.25 22.87-17.96 12.83-6.85 27.11-10.32 42.44-10.32 13.57 0 25.91 2.94 36.69 8.74 10.94 5.89 19.59 14.17 25.72 24.6.24.4.47.81.7 1.22l4.26 7.64 5.04-7.15c7.24-10.28 16.73-18.6 28.19-24.72 12.85-6.84 27.12-10.31 42.45-10.31m0-5.5c-16.24 0-31.39 3.69-45.03 10.97-12.25 6.54-22.35 15.41-30.1 26.4l-.75-1.32c-6.64-11.32-16.01-20.29-27.85-26.66-11.59-6.24-24.82-9.4-39.3-9.4-16.24 0-31.39 3.69-45.03 10.97-9.44 5.04-17.61 11.46-24.41 19.18-2.78-5.78-6.72-10.84-11.76-15.03-10.22-8.5-24.22-12.81-41.59-12.81h-56.68c-7.36 0-13.7 5.2-15.14 12.41l-24.88 124.56c-.91 4.53.27 9.24 3.2 12.81 2.93 3.58 7.31 5.65 11.94 5.65h36.96c7.35 0 13.68-5.18 15.13-12.38l4.25-21.03h6.92c14.8 0 28.06-2.88 39.42-8.56 5.2-2.6 9.91-5.71 14.09-9.29a70.842 70.842 0 0 0 7.25 17.39c6.63 11.37 15.98 20.41 27.81 26.84 11.6 6.31 24.84 9.52 39.36 9.52 16.28 0 31.47-3.77 45.13-11.2 12.18-6.62 22.23-15.53 29.95-26.53.25.46.51.92.78 1.37 6.63 11.37 15.98 20.41 27.81 26.84 11.6 6.31 24.84 9.52 39.36 9.52 16.28 0 31.47-3.77 45.13-11.2 5.93-3.23 11.36-7 16.26-11.29l-.31 1.54c-.91 4.53.27 9.24 3.2 12.81 2.93 3.58 7.31 5.65 11.94 5.65h89.38c7.35 0 13.68-5.19 15.13-12.39l6.14-30.5c.25-1.11.39-2.27.39-3.46 0-8.53-6.91-15.44-15.43-15.44h-33.61l14.98-75.19c.9-4.53-.27-9.23-3.21-12.81a15.446 15.446 0 0 0-11.93-5.65h-36.96c-7.36 0-13.7 5.2-15.14 12.41l-4.62 23.16c-.34-.61-.68-1.22-1.03-1.82-6.64-11.32-16.01-20.29-27.85-26.66-11.59-6.22-24.81-9.38-39.3-9.38z"/><linearGradient id="h" gradientUnits="userSpaceOnUse" x1="910.429" y1="349.663" x2="910.429" y2="220.309"><stop offset="0" stop-color="#131313"/><stop offset=".5"/><stop offset=".5" stop-color="#393939"/><stop offset="1" stop-color="#131313"/></linearGradient><path fill="url(#h)" d="M770.68 231.86c7.4 6.16 11.11 14.87 11.11 26.12 0 11.14-2.46 20.91-7.37 29.32-4.92 8.41-11.99 14.93-21.23 19.55-9.24 4.62-20.08 6.93-32.52 6.93h-19.55l-6.75 33.4h-36.96l24.88-124.56h56.68c13.74 0 24.31 3.08 31.71 9.24zm-30.56 47.62c3.85-3.79 5.77-8.88 5.77-15.28 0-4.26-1.24-7.52-3.73-9.77s-6.1-3.38-10.84-3.38h-17.77l-6.75 34.12h17.77c6.52-.01 11.7-1.9 15.55-5.69zm153.61-51.62c9.36 5.04 16.64 11.99 21.86 20.88 5.21 8.88 7.82 18.95 7.82 30.21 0 13.15-3.32 25.11-9.95 35.89-6.64 10.78-15.67 19.28-27.1 25.5-11.43 6.22-24.02 9.33-37.76 9.33-11.97 0-22.63-2.55-31.98-7.64-9.36-5.09-16.64-12.11-21.86-21.06-5.21-8.94-7.82-19.1-7.82-30.47 0-13.15 3.31-25.08 9.95-35.8 6.63-10.72 15.66-19.13 27.1-25.23 11.43-6.1 24.02-9.15 37.76-9.15 11.96-.01 22.62 2.51 31.98 7.54zm-51.26 28.07c-5.27 3.26-9.51 7.73-12.7 13.42-3.2 5.69-4.8 11.9-4.8 18.66 0 5.81 1.21 11.05 3.64 15.72 2.43 4.68 5.71 8.38 9.86 11.11 4.15 2.73 8.71 4.09 13.68 4.09 5.92 0 11.43-1.66 16.52-4.97 5.09-3.32 9.15-7.85 12.17-13.59 3.02-5.74 4.53-12.05 4.53-18.92 0-5.69-1.13-10.84-3.38-15.46-2.25-4.62-5.39-8.26-9.42-10.93s-8.53-4-13.5-4c-5.8-.01-11.33 1.62-16.6 4.87zm194.29-28.07c9.36 5.04 16.64 11.99 21.86 20.88 5.21 8.88 7.82 18.95 7.82 30.21 0 13.15-3.32 25.11-9.95 35.89-6.64 10.78-15.67 19.28-27.1 25.5-11.43 6.22-24.02 9.33-37.76 9.33-11.97 0-22.63-2.55-31.98-7.64-9.36-5.09-16.64-12.11-21.86-21.06-5.21-8.94-7.82-19.1-7.82-30.47 0-13.15 3.31-25.08 9.95-35.8 6.63-10.72 15.66-19.13 27.1-25.23 11.43-6.1 24.02-9.15 37.76-9.15 11.96-.01 22.62 2.51 31.98 7.54zm-51.26 28.07c-5.27 3.26-9.51 7.73-12.7 13.42-3.2 5.69-4.8 11.9-4.8 18.66 0 5.81 1.21 11.05 3.64 15.72 2.43 4.68 5.71 8.38 9.86 11.11 4.15 2.73 8.71 4.09 13.68 4.09 5.92 0 11.43-1.66 16.52-4.97 5.09-3.32 9.15-7.85 12.17-13.59 3.02-5.74 4.53-12.05 4.53-18.92 0-5.69-1.13-10.84-3.38-15.46-2.25-4.62-5.39-8.26-9.42-10.93s-8.53-4-13.5-4c-5.79-.01-11.33 1.62-16.6 4.87zm125.53 60.33h52.42l-6.22 30.92h-89.38l24.88-124.56h36.96l-18.66 93.64z"/><linearGradient id="i" gradientUnits="userSpaceOnUse" x1="910.431" y1="349.663" x2="910.431" y2="220.309"><stop offset="0" stop-color="#484848"/><stop offset="1"/></linearGradient><path fill="url(#i)" d="M1004.78 222.31c11.57 0 22.01 2.46 31.04 7.31 8.99 4.84 16.08 11.61 21.08 20.13 5.01 8.53 7.54 18.35 7.54 29.19 0 12.71-3.25 24.43-9.65 34.84-6.42 10.43-15.28 18.77-26.35 24.79-11.08 6.03-23.47 9.09-36.8 9.09-11.57 0-22.01-2.49-31.03-7.4-8.99-4.89-16.08-11.72-21.08-20.31-5.01-8.59-7.55-18.5-7.55-29.47 0-12.71 3.25-24.4 9.65-34.75 6.41-10.36 15.27-18.61 26.34-24.52 11.08-5.9 23.47-8.9 36.81-8.9m-9.6 98.61c6.29 0 12.22-1.78 17.62-5.3 5.36-3.49 9.68-8.31 12.85-14.34 3.16-6.01 4.76-12.69 4.76-19.85 0-5.96-1.2-11.46-3.58-16.33-2.4-4.92-5.8-8.87-10.11-11.72-4.34-2.87-9.26-4.33-14.61-4.33-6.15 0-12.1 1.74-17.67 5.19-5.54 3.42-10.05 8.18-13.4 14.14-3.35 5.96-5.05 12.57-5.05 19.64 0 6.1 1.3 11.7 3.87 16.65 2.57 4.97 6.12 8.96 10.54 11.86 4.46 2.91 9.43 4.39 14.78 4.39m-133.44-98.61c11.57 0 22.01 2.46 31.04 7.31 8.99 4.84 16.08 11.61 21.08 20.13 5.01 8.53 7.54 18.35 7.54 29.19 0 12.71-3.25 24.44-9.65 34.84-6.42 10.43-15.28 18.77-26.35 24.79-11.08 6.03-23.47 9.09-36.8 9.09-11.57 0-22.01-2.49-31.03-7.4-8.99-4.89-16.08-11.72-21.08-20.31-5.01-8.59-7.55-18.5-7.55-29.47 0-12.71 3.25-24.4 9.65-34.75 6.41-10.36 15.27-18.61 26.34-24.52 11.08-5.9 23.47-8.9 36.81-8.9m-9.59 98.61c6.29 0 12.22-1.78 17.62-5.3 5.36-3.49 9.68-8.31 12.85-14.34 3.16-6.01 4.76-12.69 4.76-19.85 0-5.96-1.2-11.46-3.58-16.33-2.4-4.92-5.8-8.87-10.11-11.72-4.34-2.87-9.26-4.33-14.61-4.33-6.15 0-12.1 1.74-17.67 5.19-5.54 3.42-10.05 8.18-13.4 14.14-3.35 5.96-5.05 12.57-5.05 19.64 0 6.1 1.3 11.7 3.87 16.65 2.57 4.97 6.12 8.96 10.54 11.86 4.45 2.91 9.43 4.39 14.78 4.39m275.1-96.3-18.18 91.25c-.12.59.04 1.2.42 1.66.38.46.95.73 1.55.73h49.97l-5.41 26.92h-85.3l24.08-120.56h32.87m-388.28 0c13.19 0 23.44 2.95 30.44 8.78 6.99 5.82 10.38 13.86 10.38 24.58 0 10.72-2.39 20.25-7.1 28.31-4.69 8.03-11.56 14.34-20.4 18.77-8.92 4.46-19.56 6.72-31.62 6.72h-19.55c-.95 0-1.77.67-1.96 1.6l-6.43 31.8h-32.88l24.08-120.56h55.04m-32.17 62.54h17.77c7.03 0 12.73-2.11 16.95-6.26 4.23-4.16 6.37-9.78 6.37-16.71 0-4.83-1.48-8.62-4.39-11.26-2.86-2.58-6.96-3.89-12.18-3.89h-17.77c-.95 0-1.78.67-1.96 1.61l-6.75 34.12c-.12.59.04 1.2.42 1.66.38.47.95.73 1.54.73m297.98-66.85c-13.74 0-26.33 3.05-37.76 9.15-11.43 6.1-20.46 14.51-27.1 25.23-6.64 10.72-9.95 22.65-9.95 35.8 0 11.37 2.6 21.53 7.82 30.47 5.21 8.95 12.5 15.96 21.86 21.06 9.36 5.09 20.02 7.64 31.98 7.64 13.74 0 26.33-3.11 37.76-9.33 11.43-6.22 20.46-14.72 27.1-25.5 6.63-10.78 9.95-22.74 9.95-35.89 0-11.25-2.61-21.32-7.82-30.21-5.21-8.88-12.5-15.84-21.86-20.88-9.36-5.02-20.02-7.54-31.98-7.54zm-9.6 98.61c-4.98 0-9.54-1.36-13.68-4.09-4.15-2.72-7.43-6.42-9.86-11.11-2.43-4.68-3.64-9.92-3.64-15.72 0-6.75 1.6-12.97 4.8-18.66 3.2-5.69 7.43-10.16 12.7-13.42s10.81-4.89 16.61-4.89c4.98 0 9.48 1.33 13.5 4 4.03 2.67 7.17 6.31 9.42 10.93s3.38 9.77 3.38 15.46c0 6.87-1.51 13.18-4.53 18.92-3.02 5.75-7.08 10.28-12.17 13.59-5.1 3.34-10.6 4.99-16.53 4.99zm-133.44-98.61c-13.74 0-26.33 3.05-37.76 9.15-11.43 6.1-20.46 14.51-27.1 25.23-6.64 10.72-9.95 22.65-9.95 35.8 0 11.37 2.6 21.53 7.82 30.47 5.21 8.95 12.5 15.96 21.86 21.06 9.36 5.09 20.02 7.64 31.98 7.64 13.74 0 26.33-3.11 37.76-9.33 11.43-6.22 20.46-14.72 27.1-25.5 6.63-10.78 9.95-22.74 9.95-35.89 0-11.25-2.61-21.32-7.82-30.21-5.21-8.88-12.5-15.84-21.86-20.88-9.35-5.02-20.01-7.54-31.98-7.54zm-9.59 98.61c-4.98 0-9.54-1.36-13.68-4.09-4.15-2.72-7.43-6.42-9.86-11.11-2.43-4.68-3.64-9.92-3.64-15.72 0-6.75 1.6-12.97 4.8-18.66 3.2-5.69 7.43-10.16 12.7-13.42s10.81-4.89 16.61-4.89c4.98 0 9.48 1.33 13.5 4 4.03 2.67 7.17 6.31 9.42 10.93s3.38 9.77 3.38 15.46c0 6.87-1.51 13.18-4.53 18.92-3.02 5.75-7.08 10.28-12.17 13.59-5.1 3.34-10.61 4.99-16.53 4.99zm277.54-96.3h-36.96l-24.88 124.56h89.38l6.22-30.92h-52.42l18.66-93.64zm-390.72 0h-56.68l-24.88 124.56h36.96l6.75-33.4h19.55c12.44 0 23.28-2.31 32.52-6.93 9.24-4.62 16.32-11.13 21.23-19.55 4.91-8.41 7.37-18.18 7.37-29.32 0-11.25-3.7-19.96-11.11-26.12-7.4-6.16-17.97-9.24-31.71-9.24zm-32.17 62.54 6.75-34.12h17.77c4.74 0 8.35 1.13 10.84 3.38s3.73 5.51 3.73 9.77c0 6.4-1.93 11.49-5.78 15.28-3.85 3.79-9.03 5.69-15.55 5.69H706.8zm456.65 31.1z"/><g opacity=".25"><path d="M551.27 212.26c8.69 0 17.2 2.45 24.72 4.61l.31.09c5.74 1.63 11.17 3.16 14.88 3.16 3.6 0 6.72-1.19 9.84-3.74a15.07 15.07 0 0 1 12.17-3.19c4.33.76 8.11 3.37 10.36 7.14l13.92 23.35c4.15 6.96 2.06 15.96-4.73 20.38-9.18 5.97-16.84 12.28-23.42 19.29-.04.04-.08.09-.12.13-15.54 16.16-21.36 33.27-26.48 48.37-3.46 10.19-6.45 18.98-11.79 26.19-7.1 9.58-17.15 14.44-29.86 14.44-23.36 0-36.08-16.32-37.18-33.18-12.36 17.28-29.52 28.1-46.6 28.1-4.41 0-8.72-.72-12.83-2.13-.57-.2-1.12-.42-1.68-.64-5.71 4.32-10.02 6.12-14.49 6.12-2.31 0-4.54-.49-6.58-1.44h-58.19c-4.89 0-9.47-2.36-12.3-6.35a15.095 15.095 0 0 1-2.75-9.93 47.096 47.096 0 0 1-4.17 4.64c-10.12 9.83-24.58 14.81-42.97 14.81-10.45 0-17.51-2.57-23.13-4.61-4.96-1.77-8.54-3.04-14.39-3.04-4.76 0-14.16 2.67-19.63 5.06-1.97.86-4.03 1.27-6.05 1.27-5.75 0-11.25-3.31-13.77-8.89l-9.9-21.91c-3.28-7.25-.36-15.8 6.66-19.54 4.43-2.36 16.87-9.18 30.57-18.4-10.21-5.62-16.99-16.55-16.99-29.39 0-15.82 7.97-31.58 21.87-43.24 13.15-11.03 30.45-17.36 47.47-17.36 17.48 0 32.59 4.35 43.71 12.58 11.13 8.24 17.74 20.01 18.91 33.47l51.36-39.88c2.65-2.06 5.91-3.17 9.26-3.17h56.55c.82 0 1.63.07 2.43.2 3.34.43 6.57 1.2 9.58 2.26 4.71 1.67 9.11 4.08 13.13 7.2.38-.36.78-.69 1.2-1.01 10.79-8.16 28.42-11.82 41.1-11.82m0-8c-11.88 0-29.48 2.95-42.44 11.04a54.483 54.483 0 0 0-10.34-4.94c-3.5-1.24-7.23-2.13-11.09-2.64-1.18-.19-2.38-.28-3.58-.28h-56.55c-5.1 0-10.14 1.72-14.17 4.86l-41.35 32.11c-3.58-10.18-10.16-19.09-19.25-25.82-12.5-9.26-29.26-14.15-48.47-14.15-18.87 0-38.05 7.01-52.61 19.23-15.72 13.18-24.73 31.18-24.73 49.37 0 10.93 4.15 21.18 11.28 28.75-9.39 5.88-17.16 10.13-20.62 11.97-10.71 5.7-15.19 18.84-10.19 29.9l9.9 21.91c3.73 8.26 12 13.59 21.06 13.59 3.2 0 6.31-.65 9.26-1.94 4.97-2.18 13.26-4.39 16.42-4.39 4.45 0 7.02.91 11.67 2.57 5.91 2.15 14 5.08 25.84 5.08 17.73 0 32.32-4.28 43.48-12.72a23.115 23.115 0 0 0 18.71 9.55h56.62c2.6.95 5.33 1.44 8.16 1.44 5.19 0 10.17-1.63 15.73-5.22 4.29 1.25 8.74 1.88 13.26 1.88 9.76 0 19.87-3.02 29.24-8.74 4.74-2.89 9.31-6.49 13.56-10.65 2.1 4.41 4.93 8.44 8.41 11.89 8.3 8.23 19.56 12.59 32.57 12.59 15.17 0 27.72-6.11 36.29-17.68 6.09-8.21 9.26-17.56 12.94-28.38 5.1-15.01 10.37-30.52 24.68-45.4l.19-.2c6.14-6.53 13.32-12.44 21.95-18.06a23.028 23.028 0 0 0 7.24-31.19l-13.92-23.35a23.07 23.07 0 0 0-15.85-10.92c-1.31-.23-2.66-.35-3.99-.35-5.32 0-10.52 1.86-14.63 5.23-2.07 1.69-3.51 1.93-4.77 1.93-2.6 0-7.97-1.52-12.7-2.86l-.31-.09c-7.59-2.19-17.07-4.92-26.9-4.92z"/><path d="m637.47 243.69-13.92-23.35a15.109 15.109 0 0 0-12.97-7.37c-3.46 0-6.85 1.19-9.56 3.42-3.11 2.55-6.24 3.74-9.84 3.74-3.71 0-9.13-1.54-14.88-3.16l-.31-.09c-7.52-2.16-16.04-4.61-24.72-4.61-12.68 0-30.32 3.66-41.12 11.83-.42.32-.82.66-1.2 1.01a46.924 46.924 0 0 0-13.13-7.2c-3.01-1.07-6.23-1.83-9.58-2.26-.8-.13-1.61-.2-2.43-.2h-56.55c-3.35 0-6.61 1.12-9.26 3.17l-51.36 39.88c-1.17-13.47-7.78-25.23-18.91-33.47-11.12-8.23-26.23-12.58-43.71-12.58-17.02 0-34.32 6.33-47.47 17.36-13.9 11.66-21.87 27.42-21.87 43.24 0 12.84 6.78 23.77 16.99 29.39-13.71 9.22-26.14 16.04-30.57 18.4-7.02 3.74-9.94 12.29-6.66 19.54l9.9 21.91c2.52 5.58 8.01 8.89 13.77 8.89 2.02 0 4.08-.41 6.05-1.27 5.47-2.4 14.88-5.06 19.63-5.06 5.84 0 9.42 1.28 14.39 3.04 5.62 2.04 12.68 4.61 23.13 4.61 18.4 0 32.85-4.98 42.97-14.81 1.49-1.45 2.88-3 4.17-4.64a15.106 15.106 0 0 0 15.05 16.28h58.19c2.04.95 4.27 1.44 6.58 1.44 4.48 0 8.78-1.8 14.49-6.12.56.22 1.11.45 1.68.64 4.11 1.41 8.42 2.13 12.83 2.13 17.08 0 34.23-10.82 46.6-28.1 1.1 16.87 13.82 33.18 37.18 33.18 12.72 0 22.76-4.86 29.86-14.44 5.34-7.21 8.33-16.01 11.79-26.19 5.13-15.1 10.94-32.21 26.48-48.37.04-.04.08-.09.12-.13 6.58-7 14.24-13.31 23.42-19.29 6.81-4.43 8.9-13.43 4.75-20.39z"/><path d="M551.27 217.76c7.92 0 16.04 2.34 23.22 4.4l.31.09c6.12 1.73 11.91 3.37 16.38 3.37 4.87 0 9.23-1.63 13.32-4.98a9.623 9.623 0 0 1 6.08-2.17c.55 0 1.11.05 1.66.14a9.62 9.62 0 0 1 6.59 4.54l13.92 23.35a9.57 9.57 0 0 1-3.01 12.96c-9.55 6.22-17.54 12.8-24.43 20.13l-.08.09c-16.39 17.04-22.41 34.77-27.73 50.41-3.31 9.75-6.18 18.17-11.01 24.69-6.09 8.22-14.41 12.21-25.45 12.21-20.62 0-30.78-14.08-31.69-28.04l-1.01-15.36-8.96 12.52c-11.56 16.16-27.31 25.8-42.12 25.8-3.8 0-7.51-.62-11.04-1.83-.34-.12-.73-.27-1.14-.44l-.29-.12-2.88-1.14-2.47 1.87c-5.83 4.41-8.92 5.01-11.17 5.01-1.51 0-2.94-.31-4.27-.93l-1.1-.51h-59.4a9.63 9.63 0 0 1-7.82-4.03 9.652 9.652 0 0 1-1.75-6.31l1.42-18.17-11.24 14.35a40.603 40.603 0 0 1-3.67 4.08c-9.06 8.79-22.23 13.25-39.14 13.25-9.48 0-15.73-2.27-21.28-4.29-5.07-1.8-9.44-3.36-16.23-3.36-5.7 0-15.77 2.87-21.84 5.53-1.23.54-2.52.81-3.84.81-3.77 0-7.2-2.22-8.75-5.65l-9.9-21.91c-2.08-4.6-.22-10.05 4.23-12.42 4.73-2.52 17.22-9.38 31.06-18.69l7.48-5.03-7.9-4.35c-8.86-4.87-14.14-14.06-14.14-24.57 0-14.19 7.26-28.42 19.91-39.03 12.17-10.21 28.19-16.07 43.94-16.07 16.29 0 30.28 3.98 40.44 11.5 9.88 7.32 15.66 17.53 16.71 29.53l.88 10.06 7.98-6.19 51.36-39.88a9.674 9.674 0 0 1 5.89-2.02h56.55c.52 0 1.04.04 1.54.12l.09.01.09.01c2.96.38 5.8 1.05 8.45 1.99 4.14 1.46 8.04 3.6 11.6 6.36l3.7 2.87 3.42-3.2c.24-.23.5-.44.76-.64 9.7-7.36 26.39-10.72 37.77-10.72m0-5.5c-12.68 0-30.32 3.66-41.12 11.83-.42.32-.82.66-1.2 1.01a46.924 46.924 0 0 0-13.13-7.2c-3.01-1.07-6.23-1.83-9.58-2.26-.8-.13-1.61-.2-2.43-.2h-56.55c-3.35 0-6.61 1.12-9.26 3.17l-51.36 39.88c-1.17-13.47-7.78-25.23-18.91-33.47-11.12-8.23-26.23-12.58-43.71-12.58-17.02 0-34.32 6.33-47.47 17.35-13.9 11.66-21.87 27.42-21.87 43.24 0 12.84 6.78 23.77 16.99 29.39-13.71 9.22-26.14 16.04-30.57 18.4-7.02 3.74-9.94 12.29-6.66 19.54l9.9 21.91c2.52 5.58 8.01 8.89 13.77 8.89 2.02 0 4.08-.41 6.05-1.27 5.47-2.4 14.88-5.06 19.63-5.06 5.84 0 9.42 1.28 14.39 3.04 5.62 2.04 12.68 4.61 23.13 4.61 18.4 0 32.85-4.98 42.97-14.81 1.49-1.45 2.88-3 4.17-4.64a15.106 15.106 0 0 0 15.05 16.28h58.19c2.04.95 4.27 1.44 6.58 1.44 4.48 0 8.78-1.8 14.49-6.12.56.22 1.11.45 1.68.64 4.11 1.41 8.42 2.13 12.83 2.13 17.08 0 34.23-10.82 46.6-28.1 1.1 16.87 13.82 33.18 37.18 33.18 12.72 0 22.76-4.86 29.86-14.44 5.34-7.21 8.33-16.01 11.79-26.19 5.13-15.1 10.94-32.21 26.48-48.37.04-.04.08-.09.12-.13 6.58-7 14.24-13.31 23.42-19.29 6.79-4.42 8.88-13.42 4.73-20.38l-13.92-23.35a15.109 15.109 0 0 0-12.97-7.37c-3.46 0-6.85 1.19-9.56 3.42-3.11 2.55-6.24 3.74-9.84 3.74-3.71 0-9.13-1.54-14.88-3.16l-.31-.09c-7.49-2.16-16.01-4.61-24.7-4.61z"/></g><path d="M559.27 204.26c8.69 0 17.2 2.45 24.72 4.61l.31.09c5.74 1.63 11.17 3.16 14.88 3.16 3.6 0 6.72-1.19 9.84-3.74a15.07 15.07 0 0 1 12.17-3.19c4.33.76 8.11 3.37 10.36 7.14l13.92 23.35c4.15 6.96 2.06 15.96-4.73 20.38-9.18 5.97-16.84 12.28-23.42 19.29-.04.04-.08.09-.12.13-15.54 16.16-21.36 33.27-26.48 48.37-3.46 10.19-6.45 18.98-11.79 26.19-7.1 9.58-17.15 14.44-29.86 14.44-23.36 0-36.08-16.32-37.18-33.18-12.36 17.28-29.52 28.1-46.6 28.1-4.41 0-8.72-.72-12.83-2.13-.57-.2-1.12-.42-1.68-.64-5.71 4.32-10.02 6.12-14.49 6.12-2.31 0-4.54-.49-6.58-1.44h-58.19c-4.89 0-9.47-2.36-12.3-6.35a15.095 15.095 0 0 1-2.75-9.93 47.096 47.096 0 0 1-4.17 4.64c-10.12 9.83-24.58 14.81-42.97 14.81-10.45 0-17.51-2.57-23.13-4.61-4.96-1.77-8.54-3.04-14.39-3.04-4.76 0-14.16 2.67-19.63 5.06-1.97.86-4.03 1.27-6.05 1.27-5.75 0-11.25-3.31-13.77-8.89l-9.9-21.91c-3.28-7.25-.36-15.8 6.66-19.54 4.43-2.36 16.87-9.18 30.57-18.4-10.21-5.62-16.99-16.55-16.99-29.39 0-15.82 7.97-31.58 21.87-43.24 13.15-11.03 30.45-17.36 47.47-17.36 17.48 0 32.59 4.35 43.71 12.58 11.13 8.24 17.74 20.01 18.91 33.47l51.36-39.88c2.65-2.06 5.91-3.17 9.26-3.17h56.55c.82 0 1.63.07 2.43.2 3.34.43 6.57 1.2 9.58 2.26 4.71 1.67 9.11 4.08 13.13 7.2.38-.36.78-.69 1.2-1.01 10.79-8.16 28.42-11.82 41.1-11.82m0-8c-11.88 0-29.48 2.95-42.44 11.04a54.483 54.483 0 0 0-10.34-4.94c-3.5-1.24-7.23-2.13-11.09-2.64-1.18-.19-2.38-.28-3.58-.28h-56.55c-5.1 0-10.14 1.72-14.17 4.86l-41.35 32.11c-3.58-10.18-10.16-19.09-19.25-25.82-12.5-9.26-29.26-14.15-48.47-14.15-18.87 0-38.05 7.01-52.61 19.23-15.72 13.18-24.73 31.18-24.73 49.37 0 10.93 4.15 21.18 11.28 28.75-9.39 5.88-17.16 10.13-20.62 11.97-10.71 5.7-15.19 18.84-10.19 29.9l9.9 21.91c3.73 8.26 12 13.59 21.06 13.59 3.2 0 6.31-.65 9.26-1.94 4.97-2.18 13.26-4.39 16.42-4.39 4.45 0 7.02.91 11.67 2.57 5.91 2.15 14 5.08 25.84 5.08 17.73 0 32.32-4.28 43.48-12.72a23.115 23.115 0 0 0 18.71 9.55h56.62c2.6.95 5.33 1.44 8.16 1.44 5.19 0 10.17-1.63 15.73-5.22 4.29 1.25 8.74 1.88 13.26 1.88 9.76 0 19.87-3.02 29.24-8.74 4.74-2.89 9.31-6.49 13.56-10.65 2.1 4.41 4.93 8.44 8.41 11.89 8.3 8.23 19.56 12.59 32.57 12.59 15.17 0 27.72-6.11 36.29-17.68 6.09-8.21 9.26-17.56 12.94-28.38 5.1-15.01 10.37-30.52 24.68-45.4l.19-.2c6.14-6.53 13.32-12.44 21.95-18.06a23.028 23.028 0 0 0 7.24-31.19l-13.92-23.35a23.07 23.07 0 0 0-15.85-10.92c-1.31-.23-2.66-.35-3.99-.35-5.32 0-10.52 1.86-14.63 5.23-2.07 1.69-3.51 1.93-4.77 1.93-2.6 0-7.97-1.52-12.7-2.86l-.31-.09c-7.59-2.19-17.07-4.92-26.9-4.92z"/><linearGradient id="j" gradientUnits="userSpaceOnUse" x1="434.356" y1="204.263" x2="434.356" y2="364.492"><stop offset="0" stop-color="#ebebeb"/><stop offset=".5" stop-color="#fff"/><stop offset=".5" stop-color="#d6d6d6"/><stop offset="1" stop-color="#ebebeb"/></linearGradient><path fill="url(#j)" d="m645.47 235.69-13.92-23.35a15.109 15.109 0 0 0-12.97-7.37c-3.46 0-6.85 1.19-9.56 3.42-3.11 2.55-6.24 3.74-9.84 3.74-3.71 0-9.13-1.54-14.88-3.16l-.31-.09c-7.52-2.16-16.04-4.61-24.72-4.61-12.68 0-30.32 3.66-41.12 11.83-.42.32-.82.66-1.2 1.01a46.924 46.924 0 0 0-13.13-7.2c-3.01-1.07-6.23-1.83-9.58-2.26-.8-.13-1.61-.2-2.43-.2h-56.55c-3.35 0-6.61 1.12-9.26 3.17l-51.36 39.88c-1.17-13.47-7.78-25.23-18.91-33.47-11.12-8.23-26.23-12.58-43.71-12.58-17.02 0-34.32 6.33-47.47 17.36-13.9 11.66-21.87 27.42-21.87 43.24 0 12.84 6.78 23.77 16.99 29.39-13.71 9.22-26.14 16.04-30.57 18.4-7.02 3.74-9.94 12.29-6.66 19.54l9.9 21.91c2.52 5.58 8.01 8.89 13.77 8.89 2.02 0 4.08-.41 6.05-1.27 5.47-2.4 14.88-5.06 19.63-5.06 5.84 0 9.42 1.28 14.39 3.04 5.62 2.04 12.68 4.61 23.13 4.61 18.4 0 32.85-4.98 42.97-14.81 1.49-1.45 2.88-3 4.17-4.64a15.106 15.106 0 0 0 15.05 16.28h58.19c2.04.95 4.27 1.44 6.58 1.44 4.48 0 8.78-1.8 14.49-6.12.56.22 1.11.45 1.68.64 4.11 1.41 8.42 2.13 12.83 2.13 17.08 0 34.23-10.82 46.6-28.1 1.1 16.87 13.82 33.18 37.18 33.18 12.72 0 22.76-4.86 29.86-14.44 5.34-7.21 8.33-16.01 11.79-26.19 5.13-15.1 10.94-32.21 26.48-48.37.04-.04.08-.09.12-.13 6.58-7 14.24-13.31 23.42-19.29 6.81-4.43 8.9-13.43 4.75-20.39z"/><linearGradient id="k" gradientUnits="userSpaceOnUse" x1="434.356" y1="364.492" x2="434.356" y2="204.263"><stop offset="0" stop-color="#fff"/><stop offset="1" stop-color="#ccc"/></linearGradient><path fill="url(#k)" d="M559.27 209.76c7.92 0 16.04 2.34 23.22 4.4l.31.09c6.12 1.73 11.91 3.37 16.38 3.37 4.87 0 9.23-1.63 13.32-4.98a9.623 9.623 0 0 1 6.08-2.17c.55 0 1.11.05 1.66.14a9.62 9.62 0 0 1 6.59 4.54l13.92 23.35a9.57 9.57 0 0 1-3.01 12.96c-9.55 6.22-17.54 12.8-24.43 20.13l-.08.09c-16.39 17.04-22.41 34.77-27.73 50.41-3.31 9.75-6.18 18.17-11.01 24.69-6.09 8.22-14.41 12.21-25.45 12.21-20.62 0-30.78-14.08-31.69-28.04l-1.01-15.36-8.96 12.52c-11.56 16.16-27.31 25.8-42.12 25.8-3.8 0-7.51-.62-11.04-1.83-.34-.12-.73-.27-1.14-.44l-.29-.12-2.88-1.14-2.47 1.87c-5.83 4.41-8.92 5.01-11.17 5.01-1.51 0-2.94-.31-4.27-.93l-1.1-.51h-59.4a9.63 9.63 0 0 1-7.82-4.03 9.652 9.652 0 0 1-1.75-6.31l1.42-18.17-11.24 14.35a40.603 40.603 0 0 1-3.67 4.08c-9.06 8.79-22.23 13.25-39.14 13.25-9.48 0-15.73-2.27-21.28-4.29-5.07-1.8-9.44-3.36-16.23-3.36-5.7 0-15.77 2.87-21.84 5.53-1.23.54-2.52.81-3.84.81-3.77 0-7.2-2.22-8.75-5.65l-9.9-21.91c-2.08-4.6-.22-10.05 4.23-12.42 4.73-2.52 17.22-9.38 31.06-18.69l7.48-5.03-7.9-4.35c-8.86-4.87-14.14-14.06-14.14-24.57 0-14.19 7.26-28.42 19.91-39.03 12.17-10.21 28.19-16.07 43.94-16.07 16.29 0 30.28 3.98 40.44 11.5 9.88 7.32 15.66 17.53 16.71 29.53l.88 10.06 7.98-6.19 51.36-39.88a9.674 9.674 0 0 1 5.89-2.02h56.55c.52 0 1.04.04 1.54.12l.09.01.09.01c2.96.38 5.8 1.05 8.45 1.99 4.14 1.46 8.04 3.6 11.6 6.36l3.7 2.87 3.42-3.2c.24-.23.5-.44.76-.64 9.7-7.36 26.39-10.72 37.77-10.72m0-5.5c-12.68 0-30.32 3.66-41.12 11.83-.42.32-.82.66-1.2 1.01a46.924 46.924 0 0 0-13.13-7.2c-3.01-1.07-6.23-1.83-9.58-2.26-.8-.13-1.61-.2-2.43-.2h-56.55c-3.35 0-6.61 1.12-9.26 3.17l-51.36 39.88c-1.17-13.47-7.78-25.23-18.91-33.47-11.12-8.23-26.23-12.58-43.71-12.58-17.02 0-34.32 6.33-47.47 17.35-13.9 11.66-21.87 27.42-21.87 43.24 0 12.84 6.78 23.77 16.99 29.39-13.71 9.22-26.14 16.04-30.57 18.4-7.02 3.74-9.94 12.29-6.66 19.54l9.9 21.91c2.52 5.58 8.01 8.89 13.77 8.89 2.02 0 4.08-.41 6.05-1.27 5.47-2.4 14.88-5.06 19.63-5.06 5.84 0 9.42 1.28 14.39 3.04 5.62 2.04 12.68 4.61 23.13 4.61 18.4 0 32.85-4.98 42.97-14.81 1.49-1.45 2.88-3 4.17-4.64a15.106 15.106 0 0 0 15.05 16.28h58.19c2.04.95 4.27 1.44 6.58 1.44 4.48 0 8.78-1.8 14.49-6.12.56.22 1.11.45 1.68.64 4.11 1.41 8.42 2.13 12.83 2.13 17.08 0 34.23-10.82 46.6-28.1 1.1 16.87 13.82 33.18 37.18 33.18 12.72 0 22.76-4.86 29.86-14.44 5.34-7.21 8.33-16.01 11.79-26.19 5.13-15.1 10.94-32.21 26.48-48.37.04-.04.08-.09.12-.13 6.58-7 14.24-13.31 23.42-19.29 6.79-4.42 8.88-13.42 4.73-20.38l-13.92-23.35a15.109 15.109 0 0 0-12.97-7.37c-3.46 0-6.85 1.19-9.56 3.42-3.11 2.55-6.24 3.74-9.84 3.74-3.71 0-9.13-1.54-14.88-3.16l-.31-.09c-7.49-2.16-16.01-4.61-24.7-4.61z"/><linearGradient id="l" gradientUnits="userSpaceOnUse" x1="434.357" y1="349.395" x2="434.357" y2="219.36"><stop offset="0" stop-color="#131313"/><stop offset=".5"/><stop offset=".5" stop-color="#393939"/><stop offset="1" stop-color="#131313"/></linearGradient><path fill="url(#l)" d="m513.81 298.59-7.76-2.58-.12-.03a.733.733 0 0 0-.59.23c-.2.21-.3.52-.27.82l.03.37c.08 1.01.18 2.02.21 3.03.04 1.24.03 2.44.01 3.64-.01.4.2.76.52.86l5.09 1.7c-.56 1.37-1.16 2.71-1.79 4.02l7 2.44c1.19-2.63 2.29-5.34 3.29-8.13 3.11-8.73 4.94-17.62 5.53-26.21h-7.66c-.3 6.48-1.47 13.19-3.49 19.84zm-76.53-18.3 7.74 2.58c.04.01.08.02.13.03.2.02.42-.06.58-.23.2-.2.3-.52.28-.82-.12-1.26-.23-2.52-.28-3.78-.03-1.11-.01-2.19 0-3.27.01-.41-.2-.76-.52-.86l-5.05-1.68c9.7-23.53 28.18-39.62 46.03-39.62 2.05 0 4.06.24 6.02.68l-3.78 11.47c-.11.32-.06.67.13.92.12.17.28.27.47.29.09.01.18.01.27-.02.97-.31 1.99-.64 2.99-.85.96-.21 1.94-.35 3-.42.31-.02.58-.26.69-.61l2.75-8.36c1.19.63 2.33 1.37 3.43 2.17 1.17-1.06 2.35-2.09 3.52-3.1 1.01-.87 2.02-1.74 3.04-2.66.5-.45 1-.77 1.45-1.03-3.35-3.13-7.16-5.5-11.37-6.98-2.25-.8-4.59-1.31-6.98-1.58l.01-.01h-56.55l-79.98 62.11-6.13 17.88H330.4c-.64 11.64-11.16 16.7-16.61 16.7-4.53 0-7.13-1.43-9.65-2.81-2.75-1.51-5.58-3.06-11.42-3.06h-8.21l5.98-1.92c44.02-14.21 69.26-34.82 69.26-56.56 0-21.47-18.73-35.34-47.71-35.34-28.39 0-54.24 21.7-54.24 45.5 0 10.48 7.67 18.34 17.85 18.34 9.16 0 18.64-6.79 18.64-18.18 0-1.79-.49-4.34-1.22-6.31-.78-2.26-.02-5.42 2-8.23 2.34-3.3 5.77-5.27 9.15-5.27 6.81 0 10.25 3.82 10.25 11.32 0 22.04-50.7 54.77-78.25 69.44l9.9 21.91c6.15-2.69 17.81-6.33 25.69-6.33 8.47 0 14.08 2.01 19.5 3.94 5.33 1.94 10.37 3.72 18.01 3.72 28.81 0 43.13-13.94 43.82-42.51.02-.34.04-.66.04-.99 0-.05.01-.46.01-.99h47.39l-3.9 11.16h-14.69l-10.48 30.17h58.78a6 6 0 0 1 .24-1.25l.52-1.66c.37-1.16.74-2.33 1.07-3.49 1.39-4.81 3.52-9.02 6.02-12.9-5.64-12.87-5.94-29.93-.86-46.65zm-29.59 4.76h-23.96l34-29.29-10.04 29.29zm210.89-64.99c-5.81 4.76-12.33 7.15-19.4 7.15-5.9 0-12.42-1.87-19.33-3.83-6.94-2-14.09-4.03-20.58-4.03-10.23 0-24.43 3.04-32.01 8.77l-14.81 45.22h29.16l4.82-15.23.27-.21c2.96-2.26 6.48-3.18 12.1-3.18 2.22 0 4.03.65 5.96 1.38 2.17.79 4.42 1.61 7.61 1.61 5.75 0 11.34-1.28 16.14-3.72l1.05 1.67c-46.42 35.69-62.68 50.23-62.68 73.24 0 10.2 6.88 20.49 22.17 20.49 17.03 0 21.14-12.08 27.36-30.39 5.36-15.79 12.04-35.41 29.9-53.98 7.35-7.83 15.91-14.92 26.19-21.61l-13.92-23.35zm-137.22 68a6.787 6.787 0 0 1 1.04 3.59c0 3.8-3.08 6.88-6.88 6.88-.45 0-.9-.05-1.32-.13-4.33 6.98-21.04 33.88-23.68 37.73-3.03 4.43-13.23 12.45-14.54 11.46-1.31-.99 2.25-10.85 5.36-15.73 3.58-6.34 23.09-30.46 28.25-36.79-.58-1.01-.94-2.16-.94-3.41 0-3.8 3.08-6.88 6.88-6.88.39 0 .77.05 1.14.12 4.07-6.56 21.17-34.08 23.83-37.98 3.03-4.43 13.23-12.45 14.54-11.45 1.31.99-2.25 10.84-5.36 15.72-3.6 6.36-23.27 30.67-28.32 36.87z"/><linearGradient id="m" gradientUnits="userSpaceOnUse" x1="434.357" y1="349.395" x2="434.357" y2="219.36"><stop offset="0" stop-color="#484848"/><stop offset="1"/></linearGradient><path fill="url(#m)" d="M559.27 221.36c6.29 0 13.59 2.1 20.03 3.96l.34.1c6.92 1.96 13.45 3.81 19.53 3.81 6.81 0 13.14-2.08 18.84-6.2l11.79 19.78c-9.64 6.42-17.81 13.26-24.93 20.84-18.18 18.91-24.93 38.76-30.35 54.72-6.15 18.11-9.87 29.04-25.47 29.04-13.93 0-20.17-9.29-20.17-18.49 0-22.08 16.04-36.39 61.9-71.65.82-.63 1.02-1.77.48-2.65l-1.05-1.67c-.38-.6-1.03-.94-1.7-.94-.31 0-.62.07-.9.22-4.51 2.29-9.78 3.5-15.24 3.5-2.85 0-4.83-.72-6.91-1.48-1.88-.71-4-1.51-6.66-1.51-6.11 0-9.97 1.04-13.34 3.61l-.27.21c-.31.25-.54.58-.66.96l-4.38 13.83h-24.94l13.75-41.99c7.38-5.25 20.72-8 30.31-8m-247.24.18c27.77 0 45.71 13.09 45.71 33.34 0 20.81-24.74 40.73-67.88 54.66l-5.98 1.92c-.94.3-1.52 1.24-1.36 2.21.15.97.99 1.69 1.98 1.69h8.21c5.34 0 7.83 1.37 10.49 2.83 2.6 1.42 5.55 3.04 10.58 3.04 5.83 0 16.74-4.93 18.43-16.7h16.95c.85 0 1.61-.54 1.89-1.35l5.94-17.31 78.97-61.33h55.64c2.31.27 4.5.77 6.52 1.48 3.17 1.12 6.14 2.79 8.86 4.99-.79.7-1.57 1.38-2.35 2.05l-.27.23c-.76.65-1.55 1.34-2.36 2.06-.79-.53-1.57-.99-2.34-1.4a1.968 1.968 0 0 0-1.68-.08c-.55.22-.97.67-1.15 1.23l-2.53 7.67c-.84.08-1.64.21-2.43.39-.29.06-.58.13-.88.21l3.11-9.43c.18-.54.12-1.12-.16-1.61s-.75-.84-1.3-.97a29.29 29.29 0 0 0-6.46-.73c-18.56 0-37.8 16.42-47.88 40.86-.21.51-.2 1.09.03 1.59s.66.89 1.19 1.07l4.19 1.4c-.01.84-.01 1.7.01 2.61.03.77.09 1.52.14 2.23l-5.95-1.98c-.21-.07-.42-.1-.63-.1-.32 0-.63.08-.92.22-.48.25-.84.68-1 1.2-5.1 16.8-4.91 33.87.51 47.02-2.61 4.22-4.48 8.33-5.69 12.53-.34 1.16-.71 2.34-1.06 3.45l-.47 1.51h-54.34l9.09-26.17h13.27c.85 0 1.61-.54 1.89-1.34l3.9-11.16a2.004 2.004 0 0 0-1.89-2.66h-47.39c-1.1 0-2 .9-2 2 0 .4 0 .73-.01.88v.11c0 .23-.01.46-.03.7l-.01.19v.05c-.33 13.88-3.85 23.88-10.76 30.58-6.91 6.71-17.07 9.98-31.06 9.98-7.44 0-12.24-1.75-17.34-3.6l-.05-.02c-5.57-1.98-11.33-4.04-20.12-4.04-7.75 0-18.31 3.19-24.67 5.74l-8.33-18.44c8.18-4.43 29.34-16.4 48.11-31.27 19.61-15.54 29.55-28.68 29.55-39.05 0-8.59-4.35-13.32-12.25-13.32-4.04 0-8.07 2.29-10.78 6.1-2.43 3.37-3.27 7.12-2.25 10.09.65 1.74 1.1 4.05 1.1 5.62 0 10.13-8.46 16.18-16.64 16.18-9.04 0-15.85-7.03-15.85-16.34 0-22.77 24.9-43.51 52.24-43.51m71.7 65.51h23.96c.85 0 1.61-.54 1.89-1.35l10.04-29.29a1.993 1.993 0 0 0-1.89-2.64c-.47 0-.93.16-1.31.48l-34 29.29c-.63.55-.86 1.43-.57 2.21s1.04 1.3 1.88 1.3m129.28-48.75c-.77 3.04-2.88 8.44-5.03 11.81l-.06.09c-2.76 4.9-16.34 22.12-28.13 36.6-.54.66-.6 1.59-.15 2.31.49.8.74 1.65.74 2.54 0 2.69-2.19 4.88-4.88 4.88-.3 0-.61-.03-.94-.1a2 2 0 0 0-2.09.91c-3.48 5.6-20.95 33.74-23.63 37.65-2.2 3.21-7.79 7.79-10.88 9.75.77-3.04 2.88-8.44 5.03-11.81l.06-.09c3.57-6.33 24-31.53 28.05-36.51.52-.64.6-1.54.18-2.26-.44-.77-.67-1.58-.67-2.41 0-2.69 2.19-4.88 4.88-4.88.25 0 .54.04.81.09.11.02.22.03.33.03a2 2 0 0 0 1.7-.95c3.5-5.64 21.09-33.96 23.79-37.9 2.22-3.22 7.81-7.8 10.89-9.75m9.79 42.46c-.74 7.9-2.5 15.81-5.25 23.54-.75 2.12-1.59 4.23-2.49 6.31l-3.18-1.11c.32-.72.62-1.42.9-2.1a1.991 1.991 0 0 0-1.21-2.65l-4.24-1.42c.01-.94.01-1.93-.02-2.96-.02-.63-.06-1.25-.11-1.87l5.98 1.99c.21.07.42.1.63.1.32 0 .63-.08.92-.22.48-.25.84-.68.99-1.2 1.86-6.11 3.02-12.3 3.47-18.42h3.61m36.47-61.39c-10.23 0-24.43 3.04-32.01 8.77l-14.81 45.22h29.16l4.82-15.23.27-.21c2.96-2.26 6.48-3.18 12.1-3.18 2.22 0 4.03.65 5.96 1.38 2.17.79 4.42 1.61 7.61 1.61 5.75 0 11.34-1.28 16.14-3.72l1.05 1.67c-46.42 35.69-62.68 50.23-62.68 73.24 0 10.2 6.88 20.49 22.17 20.49 17.03 0 21.14-12.08 27.36-30.39 5.36-15.79 12.04-35.41 29.9-53.98 7.35-7.83 15.91-14.92 26.19-21.61l-13.92-23.35c-5.81 4.76-12.33 7.15-19.4 7.15-5.9 0-12.42-1.87-19.33-3.83-6.94-1.99-14.09-4.03-20.58-4.03zm-247.24.18c-28.39 0-54.24 21.7-54.24 45.5 0 10.48 7.67 18.34 17.85 18.34 9.16 0 18.64-6.79 18.64-18.18 0-1.79-.49-4.34-1.22-6.31-.78-2.26-.02-5.42 2-8.23 2.34-3.3 5.77-5.27 9.15-5.27 6.81 0 10.25 3.82 10.25 11.32 0 22.04-50.7 54.77-78.25 69.44l9.9 21.91c6.15-2.69 17.81-6.33 25.69-6.33 8.47 0 14.08 2.01 19.5 3.94 5.33 1.94 10.37 3.72 18.01 3.72 28.81 0 43.13-13.94 43.82-42.51.02-.34.04-.66.04-.99 0-.05.01-.46.01-.99h47.39l-3.9 11.16h-14.69l-10.48 30.17h58.78a6 6 0 0 1 .24-1.25l.52-1.66c.37-1.16.74-2.33 1.07-3.49 1.39-4.81 3.52-9.02 6.02-12.9-5.64-12.85-5.93-29.91-.85-46.62l7.74 2.58c.04.01.08.02.13.03h.07c.18 0 .37-.08.51-.23.2-.2.3-.52.28-.82-.12-1.26-.23-2.52-.28-3.78-.03-1.11-.01-2.19 0-3.27.01-.41-.2-.76-.52-.86l-5.05-1.68c9.7-23.53 28.18-39.62 46.03-39.62 2.05 0 4.06.24 6.02.68l-3.78 11.47c-.11.32-.06.67.13.92.12.17.28.27.47.29.03 0 .06.01.09.01.06 0 .12-.01.19-.03.97-.31 1.99-.64 2.99-.85.96-.21 1.94-.35 3-.42.31-.02.58-.26.69-.61l2.75-8.36c1.19.63 2.33 1.37 3.43 2.17 1.17-1.06 2.35-2.09 3.52-3.1 1.01-.87 2.02-1.74 3.04-2.66.5-.45 1-.77 1.45-1.03-3.35-3.13-7.16-5.5-11.37-6.98-2.25-.8-4.59-1.31-6.98-1.58l.01-.01h-56.55l-79.98 62.11-6.13 17.88H330.4c-.64 11.64-11.16 16.7-16.61 16.7-4.53 0-7.13-1.43-9.65-2.81-2.75-1.51-5.58-3.06-11.42-3.06h-8.21l5.98-1.92c44.02-14.21 69.26-34.82 69.26-56.56 0-21.5-18.73-35.37-47.72-35.37zm71.7 65.51 34-29.29-10.04 29.29h-23.96zm130.99-49.68c-2.15 0-11.37 7.36-14.23 11.54-2.67 3.9-19.77 31.42-23.83 37.98-.37-.06-.75-.12-1.14-.12a6.88 6.88 0 0 0-6.88 6.88c0 1.25.36 2.4.94 3.41-5.15 6.33-24.67 30.45-28.25 36.79-3.11 4.88-6.67 14.73-5.36 15.73.08.06.18.08.31.08 2.15 0 11.37-7.36 14.23-11.54 2.63-3.85 19.35-30.75 23.68-37.73.43.08.87.13 1.32.13 3.8 0 6.88-3.08 6.88-6.88 0-1.32-.39-2.54-1.04-3.59 5.05-6.2 24.72-30.51 28.32-36.88 3.11-4.88 6.67-14.73 5.36-15.72a.545.545 0 0 0-.31-.08zm10.25 43.39zm0 0h-7.66c-.32 6.48-1.48 13.18-3.5 19.84l-7.76-2.58-.12-.03h-.07a.73.73 0 0 0-.52.23c-.2.21-.3.52-.27.82l.03.37c.08 1.01.18 2.02.21 3.03.04 1.24.03 2.44.01 3.64-.01.4.2.76.52.86l5.09 1.7c-.56 1.37-1.16 2.71-1.79 4.02l7 2.44c1.19-2.63 2.29-5.34 3.29-8.13 3.12-8.73 4.95-17.62 5.54-26.21z"/></svg>