<svg xmlns="http://www.w3.org/2000/svg" viewBox="0 0 1000 160" xml:space="preserve" preserveAspectRatio="xMinYMin"><g opacity=".25"><path d="M565.69 46.59c7.24 0 13.85 1.58 19.65 4.7 5.92 3.19 10.61 7.67 13.93 13.33.18.3.35.61.52.91l2.31-11.58a7.72 7.72 0 0 1 7.57-6.21h18.48c2.31 0 4.5 1.04 5.97 2.82s2.05 4.14 1.6 6.4l-7.49 37.59h16.8c4.26 0 7.72 3.46 7.72 7.72 0 .59-.07 1.17-.19 1.73l-3.07 15.25c-.72 3.6-3.89 6.2-7.57 6.2h-44.69c-2.31 0-4.5-1.04-5.97-2.82a7.723 7.723 0 0 1-1.6-6.41l.15-.77a44.725 44.725 0 0 1-8.13 5.64c-6.83 3.72-14.43 5.6-22.57 5.6-7.26 0-13.88-1.6-19.68-4.76-5.91-3.22-10.59-7.73-13.91-13.42l-.39-.69c-3.86 5.5-8.89 9.95-14.97 13.26-6.83 3.72-14.43 5.6-22.57 5.6-7.26 0-13.88-1.6-19.68-4.76-5.91-3.22-10.59-7.73-13.91-13.42-1.59-2.72-2.8-5.62-3.62-8.69a34.315 34.315 0 0 1-7.05 4.65c-5.68 2.84-12.31 4.28-19.71 4.28h-3.46l-2.12 10.51a7.72 7.72 0 0 1-7.57 6.19h-18.48c-2.31 0-4.5-1.04-5.97-2.82s-2.05-4.14-1.6-6.41l12.44-62.28a7.72 7.72 0 0 1 7.57-6.21h28.34c8.69 0 15.68 2.15 20.8 6.41 2.52 2.1 4.49 4.62 5.88 7.51 3.4-3.86 7.48-7.07 12.2-9.59 6.82-3.64 14.39-5.48 22.51-5.48 7.24 0 13.85 1.58 19.65 4.7 5.92 3.19 10.61 7.67 13.93 13.33.13.22.25.44.38.66 3.87-5.5 8.93-9.93 15.05-13.2 6.83-3.62 14.4-5.47 22.52-5.47m0-4c-8.78 0-16.99 2-24.4 5.96-4.93 2.63-9.23 5.97-12.85 9.95-3.38-4.4-7.64-8-12.72-10.73-6.39-3.43-13.63-5.18-21.55-5.18-8.78 0-16.99 2-24.4 5.96-3.52 1.88-6.73 4.12-9.6 6.71a27.028 27.028 0 0 0-4.04-4.18c-5.85-4.86-13.71-7.33-23.36-7.33h-28.34c-5.57 0-10.4 3.96-11.49 9.42l-12.44 62.28c-.69 3.46.2 7 2.43 9.73 2.23 2.72 5.54 4.29 9.06 4.29h18.48c5.56 0 10.39-3.95 11.49-9.4l1.48-7.31h.19c8.03 0 15.26-1.58 21.5-4.7a41.25 41.25 0 0 0 3.26-1.82c.64 1.48 1.36 2.92 2.17 4.3 3.69 6.33 8.88 11.35 15.45 14.92 6.39 3.48 13.66 5.24 21.59 5.24 8.82 0 17.05-2.05 24.48-6.09 4.88-2.66 9.15-6 12.74-9.97 3.37 4.43 7.63 8.05 12.71 10.81 6.39 3.48 13.66 5.24 21.59 5.24 8.82 0 17.05-2.05 24.48-6.09a46.42 46.42 0 0 0 3.06-1.81c.4.84.91 1.63 1.51 2.37 2.23 2.72 5.54 4.29 9.06 4.29h44.69c5.56 0 10.39-3.96 11.49-9.41l3.06-15.21c.19-.84.28-1.7.28-2.56 0-6.46-5.26-11.72-11.72-11.72H633.1l6.54-32.81c.69-3.45-.2-7-2.43-9.72a11.691 11.691 0 0 0-9.06-4.29h-18.48c-5.57 0-10.4 3.96-11.49 9.42l-.52 2.6c-2.95-3.18-6.43-5.86-10.42-8-6.39-3.42-13.64-5.16-21.55-5.16z"/><path d="M645.03 94.57h-16.8l7.49-37.59c.45-2.27-.14-4.62-1.6-6.4a7.72 7.72 0 0 0-5.97-2.82h-18.48a7.72 7.72 0 0 0-7.57 6.21l-2.31 11.58c-.17-.31-.34-.61-.52-.91-3.32-5.66-8.01-10.14-13.93-13.33-5.8-3.12-12.41-4.7-19.65-4.7-8.12 0-15.69 1.85-22.51 5.48-6.12 3.27-11.18 7.7-15.05 13.2-.12-.22-.25-.44-.38-.66-3.32-5.66-8.01-10.14-13.93-13.33-5.8-3.12-12.41-4.7-19.65-4.7-8.12 0-15.69 1.85-22.51 5.48-4.72 2.52-8.8 5.73-12.2 9.59a22.187 22.187 0 0 0-5.88-7.51c-5.11-4.25-12.11-6.41-20.8-6.41h-28.34a7.72 7.72 0 0 0-7.57 6.21l-12.44 62.28c-.45 2.27.13 4.62 1.6 6.41a7.72 7.72 0 0 0 5.97 2.82h18.48c3.67 0 6.84-2.59 7.57-6.19l2.12-10.51h3.46c7.4 0 14.03-1.44 19.71-4.28 2.6-1.3 4.95-2.85 7.05-4.65.83 3.07 2.04 5.97 3.62 8.69 3.31 5.69 7.99 10.2 13.91 13.42 5.8 3.16 12.42 4.76 19.68 4.76 8.14 0 15.73-1.88 22.57-5.6 6.09-3.31 11.11-7.77 14.97-13.26l.39.69c3.31 5.69 7.99 10.2 13.91 13.42 5.8 3.16 12.42 4.76 19.68 4.76 8.14 0 15.73-1.88 22.57-5.6 2.97-1.61 5.68-3.5 8.13-5.64l-.15.77c-.45 2.27.13 4.62 1.6 6.41a7.72 7.72 0 0 0 5.97 2.82h44.69a7.72 7.72 0 0 0 7.57-6.2l3.07-15.25c.13-.56.19-1.13.19-1.73-.01-4.28-3.47-7.73-7.73-7.73z"/><path d="M565.69 49.34c6.78 0 12.96 1.47 18.35 4.37 5.47 2.94 9.8 7.08 12.86 12.3l.48.84 3.63 6.63 1.48-7.41 2.31-11.58c.46-2.32 2.51-4 4.87-4h18.48c1.49 0 2.89.66 3.84 1.82a4.952 4.952 0 0 1 1.03 4.12l-7.49 37.59-.65 3.29h20.15c2.74 0 4.97 2.23 4.97 4.97 0 .38-.04.75-.13 1.11l-.01.04-.01.04-3.07 15.25a4.978 4.978 0 0 1-4.87 3.99h-44.69c-1.49 0-2.89-.66-3.84-1.82a4.952 4.952 0 0 1-1.03-4.12l.15-.77 1.59-7.94-6.09 5.33a42.155 42.155 0 0 1-7.63 5.3c-6.43 3.5-13.58 5.27-21.25 5.27-6.8 0-12.97-1.49-18.37-4.42-5.47-2.97-9.79-7.14-12.85-12.39l-.36-.63-2.13-3.85-2.53 3.6c-3.61 5.14-8.33 9.32-14.04 12.43-6.43 3.5-13.58 5.27-21.25 5.27-6.8 0-12.97-1.49-18.37-4.42-5.47-2.97-9.79-7.14-12.85-12.39a32.85 32.85 0 0 1-3.34-8.02l-1.13-4.21-3.31 2.84c-1.92 1.64-4.1 3.08-6.49 4.27-5.29 2.65-11.51 3.99-18.48 3.99h-5.71l-.45 2.21-2.12 10.51a4.977 4.977 0 0 1-4.87 3.98h-18.48c-1.49 0-2.89-.66-3.84-1.82a4.952 4.952 0 0 1-1.03-4.12l12.44-62.28c.46-2.32 2.51-4 4.87-4h28.34c8.03 0 14.43 1.94 19.04 5.77a19.66 19.66 0 0 1 5.16 6.59l1.8 3.74 2.74-3.11c3.17-3.6 7.02-6.63 11.43-8.98 6.42-3.42 13.56-5.16 21.22-5.16 6.78 0 12.96 1.47 18.35 4.37 5.47 2.94 9.8 7.08 12.86 12.3.12.2.23.4.35.61l2.13 3.82 2.52-3.58c3.62-5.14 8.36-9.3 14.1-12.36 6.42-3.44 13.56-5.18 21.22-5.18m0-2.75c-8.12 0-15.69 1.85-22.51 5.48-6.12 3.27-11.18 7.7-15.05 13.2-.12-.22-.25-.44-.38-.66-3.32-5.66-8.01-10.14-13.93-13.33-5.8-3.12-12.41-4.7-19.65-4.7-8.12 0-15.69 1.85-22.51 5.48-4.72 2.52-8.8 5.73-12.2 9.59a22.187 22.187 0 0 0-5.88-7.51c-5.11-4.25-12.11-6.41-20.8-6.41h-28.34a7.72 7.72 0 0 0-7.57 6.21l-12.44 62.28c-.45 2.27.13 4.62 1.6 6.41s3.66 2.82 5.97 2.82h18.48c3.67 0 6.84-2.59 7.57-6.19l2.12-10.51h3.46c7.4 0 14.03-1.44 19.71-4.28 2.6-1.3 4.95-2.85 7.05-4.65.83 3.07 2.04 5.97 3.62 8.69 3.31 5.69 7.99 10.2 13.91 13.42 5.8 3.16 12.42 4.76 19.68 4.76 8.14 0 15.73-1.89 22.57-5.6 6.09-3.31 11.11-7.77 14.97-13.26l.39.69c3.31 5.69 7.99 10.2 13.91 13.42 5.8 3.16 12.42 4.76 19.68 4.76 8.14 0 15.73-1.89 22.57-5.6 2.97-1.61 5.68-3.5 8.13-5.64l-.15.77c-.45 2.27.13 4.62 1.6 6.41a7.72 7.72 0 0 0 5.97 2.82h44.69a7.72 7.72 0 0 0 7.57-6.2l3.07-15.25c.13-.56.19-1.13.19-1.73 0-4.26-3.45-7.72-7.72-7.72h-16.8l7.49-37.59c.45-2.27-.14-4.62-1.6-6.4s-3.66-2.82-5.97-2.82h-18.48a7.72 7.72 0 0 0-7.57 6.21l-2.31 11.58c-.17-.31-.34-.61-.52-.91-3.32-5.66-8.01-10.14-13.93-13.33-5.81-3.13-12.42-4.71-19.66-4.71z"/></g><path d="M569.69 42.59c7.24 0 13.85 1.58 19.65 4.7 5.92 3.19 10.61 7.67 13.93 13.33.18.3.35.61.52.91l2.31-11.58a7.72 7.72 0 0 1 7.57-6.21h18.48c2.31 0 4.5 1.04 5.97 2.82s2.05 4.14 1.6 6.4l-7.49 37.59h16.8c4.26 0 7.72 3.46 7.72 7.72 0 .59-.07 1.17-.19 1.73l-3.07 15.25c-.72 3.6-3.89 6.2-7.57 6.2h-44.69c-2.31 0-4.5-1.04-5.97-2.82a7.723 7.723 0 0 1-1.6-6.41l.15-.77a44.725 44.725 0 0 1-8.13 5.64c-6.83 3.72-14.43 5.6-22.57 5.6-7.26 0-13.88-1.6-19.68-4.76-5.91-3.22-10.59-7.73-13.91-13.42l-.39-.69c-3.86 5.5-8.89 9.95-14.97 13.26-6.83 3.72-14.43 5.6-22.57 5.6-7.26 0-13.88-1.6-19.68-4.76-5.91-3.22-10.59-7.73-13.91-13.42-1.59-2.72-2.8-5.62-3.62-8.69a34.315 34.315 0 0 1-7.05 4.65c-5.68 2.84-12.31 4.28-19.71 4.28h-3.46l-2.12 10.51a7.72 7.72 0 0 1-7.57 6.19h-18.48c-2.31 0-4.5-1.04-5.97-2.82s-2.05-4.14-1.6-6.41l12.44-62.28a7.72 7.72 0 0 1 7.57-6.21h28.34c8.69 0 15.68 2.15 20.8 6.41 2.52 2.1 4.49 4.62 5.88 7.51 3.4-3.86 7.48-7.07 12.2-9.59 6.82-3.64 14.39-5.48 22.51-5.48 7.24 0 13.85 1.58 19.65 4.7 5.92 3.19 10.61 7.67 13.93 13.33.13.22.25.44.38.66 3.87-5.5 8.93-9.93 15.05-13.2 6.83-3.62 14.4-5.47 22.52-5.47m0-4c-8.78 0-16.99 2-24.4 5.96-4.93 2.63-9.23 5.97-12.85 9.95-3.38-4.4-7.64-8-12.72-10.73-6.39-3.43-13.63-5.18-21.55-5.18-8.78 0-16.99 2-24.4 5.96-3.52 1.88-6.73 4.12-9.6 6.71a27.028 27.028 0 0 0-4.04-4.18c-5.85-4.86-13.71-7.33-23.36-7.33h-28.34c-5.57 0-10.4 3.96-11.49 9.42l-12.44 62.28c-.69 3.46.2 7 2.43 9.73 2.23 2.72 5.54 4.29 9.06 4.29h18.48c5.56 0 10.39-3.95 11.49-9.4l1.48-7.31h.19c8.03 0 15.26-1.58 21.5-4.7a41.25 41.25 0 0 0 3.26-1.82c.64 1.48 1.36 2.92 2.17 4.3 3.69 6.33 8.88 11.35 15.45 14.92 6.39 3.48 13.66 5.24 21.59 5.24 8.82 0 17.05-2.05 24.48-6.09 4.88-2.66 9.15-6 12.74-9.97 3.37 4.43 7.63 8.05 12.71 10.81 6.39 3.48 13.66 5.24 21.59 5.24 8.82 0 17.05-2.05 24.48-6.09a46.42 46.42 0 0 0 3.06-1.81c.4.84.91 1.63 1.51 2.37 2.23 2.72 5.54 4.29 9.06 4.29h44.69c5.56 0 10.39-3.96 11.49-9.41l3.06-15.21c.19-.84.28-1.7.28-2.56 0-6.46-5.26-11.72-11.72-11.72H637.1l6.54-32.81c.69-3.45-.2-7-2.43-9.72a11.691 11.691 0 0 0-9.06-4.29h-18.48c-5.57 0-10.4 3.96-11.49 9.42l-.52 2.6c-2.95-3.18-6.43-5.86-10.42-8-6.39-3.42-13.64-5.16-21.55-5.16z"/><linearGradient id="a" gradientUnits="userSpaceOnUse" x1="522.517" y1="42.592" x2="522.517" y2="122.707"><stop offset="0" stop-color="#fc0"/><stop offset=".5" stop-color="#ff0"/><stop offset=".5" stop-color="#f90"/><stop offset="1" stop-color="#fc0"/></linearGradient><path fill="url(#a)" d="M649.03 90.57h-16.8l7.49-37.59c.45-2.27-.14-4.62-1.6-6.4a7.72 7.72 0 0 0-5.97-2.82h-18.48a7.72 7.72 0 0 0-7.57 6.21l-2.31 11.58c-.17-.31-.34-.61-.52-.91-3.32-5.66-8.01-10.14-13.93-13.33-5.8-3.12-12.41-4.7-19.65-4.7-8.12 0-15.69 1.85-22.51 5.48-6.12 3.27-11.18 7.7-15.05 13.2-.12-.22-.25-.44-.38-.66-3.32-5.66-8.01-10.14-13.93-13.33-5.8-3.12-12.41-4.7-19.65-4.7-8.12 0-15.69 1.85-22.51 5.48-4.72 2.52-8.8 5.73-12.2 9.59a22.187 22.187 0 0 0-5.88-7.51c-5.11-4.25-12.11-6.41-20.8-6.41h-28.34a7.72 7.72 0 0 0-7.57 6.21l-12.44 62.28c-.45 2.27.13 4.62 1.6 6.41a7.72 7.72 0 0 0 5.97 2.82h18.48c3.67 0 6.84-2.59 7.57-6.19l2.12-10.51h3.46c7.4 0 14.03-1.44 19.71-4.28 2.6-1.3 4.95-2.85 7.05-4.65.83 3.07 2.04 5.97 3.62 8.69 3.31 5.69 7.99 10.2 13.91 13.42 5.8 3.16 12.42 4.76 19.68 4.76 8.14 0 15.73-1.88 22.57-5.6 6.09-3.31 11.11-7.77 14.97-13.26l.39.69c3.31 5.69 7.99 10.2 13.91 13.42 5.8 3.16 12.42 4.76 19.68 4.76 8.14 0 15.73-1.88 22.57-5.6 2.97-1.61 5.68-3.5 8.13-5.64l-.15.77c-.45 2.27.13 4.62 1.6 6.41a7.72 7.72 0 0 0 5.97 2.82h44.69a7.72 7.72 0 0 0 7.57-6.2l3.07-15.25c.13-.56.19-1.13.19-1.73-.01-4.28-3.47-7.73-7.73-7.73z"/><linearGradient id="b" gradientUnits="userSpaceOnUse" x1="522.517" y1="122.707" x2="522.517" y2="42.592"><stop offset="0" stop-color="#ff0"/><stop offset="1" stop-color="#f90"/></linearGradient><path fill="url(#b)" d="M569.69 45.34c6.78 0 12.96 1.47 18.35 4.37 5.47 2.94 9.8 7.08 12.86 12.3l.48.84 3.63 6.63 1.48-7.41 2.31-11.58c.46-2.32 2.51-4 4.87-4h18.48c1.49 0 2.89.66 3.84 1.82a4.952 4.952 0 0 1 1.03 4.12l-7.49 37.59-.65 3.29h20.15c2.74 0 4.97 2.23 4.97 4.97 0 .38-.04.75-.13 1.11l-.01.04-.01.04-3.07 15.25a4.978 4.978 0 0 1-4.87 3.99h-44.69c-1.49 0-2.89-.66-3.84-1.82a4.952 4.952 0 0 1-1.03-4.12l.15-.77 1.59-7.94-6.09 5.33a42.155 42.155 0 0 1-7.63 5.3c-6.43 3.5-13.58 5.27-21.25 5.27-6.8 0-12.97-1.49-18.37-4.42-5.47-2.97-9.79-7.14-12.85-12.39l-.36-.63-2.13-3.85-2.53 3.6c-3.61 5.14-8.33 9.32-14.04 12.43-6.43 3.5-13.58 5.27-21.25 5.27-6.8 0-12.97-1.49-18.37-4.42-5.47-2.97-9.79-7.14-12.85-12.39a32.85 32.85 0 0 1-3.34-8.02l-1.13-4.21-3.31 2.84c-1.92 1.64-4.1 3.08-6.49 4.27-5.29 2.65-11.51 3.99-18.48 3.99h-5.71l-.45 2.21-2.12 10.51a4.977 4.977 0 0 1-4.87 3.98h-18.48c-1.49 0-2.89-.66-3.84-1.82a4.952 4.952 0 0 1-1.03-4.12l12.44-62.28c.46-2.32 2.51-4 4.87-4h28.34c8.03 0 14.43 1.94 19.04 5.77a19.66 19.66 0 0 1 5.16 6.59l1.8 3.74 2.74-3.11c3.17-3.6 7.02-6.63 11.43-8.98 6.42-3.42 13.56-5.16 21.22-5.16 6.78 0 12.96 1.47 18.35 4.37 5.47 2.94 9.8 7.08 12.86 12.3.12.2.23.4.35.61l2.13 3.82 2.52-3.58c3.62-5.14 8.36-9.3 14.1-12.36 6.42-3.44 13.56-5.18 21.22-5.18m0-2.75c-8.12 0-15.69 1.85-22.51 5.48-6.12 3.27-11.18 7.7-15.05 13.2-.12-.22-.25-.44-.38-.66-3.32-5.66-8.01-10.14-13.93-13.33-5.8-3.12-12.41-4.7-19.65-4.7-8.12 0-15.69 1.85-22.51 5.48-4.72 2.52-8.8 5.73-12.2 9.59a22.187 22.187 0 0 0-5.88-7.51c-5.11-4.25-12.11-6.41-20.8-6.41h-28.34a7.72 7.72 0 0 0-7.57 6.21l-12.44 62.28c-.45 2.27.13 4.62 1.6 6.41s3.66 2.82 5.97 2.82h18.48c3.67 0 6.84-2.59 7.57-6.19l2.12-10.51h3.46c7.4 0 14.03-1.44 19.71-4.28 2.6-1.3 4.95-2.85 7.05-4.65.83 3.07 2.04 5.97 3.62 8.69 3.31 5.69 7.99 10.2 13.91 13.42 5.8 3.16 12.42 4.76 19.68 4.76 8.14 0 15.73-1.89 22.57-5.6 6.09-3.31 11.11-7.77 14.97-13.26l.39.69c3.31 5.69 7.99 10.2 13.91 13.42 5.8 3.16 12.42 4.76 19.68 4.76 8.14 0 15.73-1.89 22.57-5.6 2.97-1.61 5.68-3.5 8.13-5.64l-.15.77c-.45 2.27.13 4.62 1.6 6.41a7.72 7.72 0 0 0 5.97 2.82h44.69a7.72 7.72 0 0 0 7.57-6.2l3.07-15.25c.13-.56.19-1.13.19-1.73 0-4.26-3.45-7.72-7.72-7.72h-16.8l7.49-37.59c.45-2.27-.14-4.62-1.6-6.4s-3.66-2.82-5.97-2.82h-18.48a7.72 7.72 0 0 0-7.57 6.21l-2.31 11.58c-.17-.31-.34-.61-.52-.91-3.32-5.66-8.01-10.14-13.93-13.33-5.81-3.13-12.42-4.71-19.66-4.71z"/><linearGradient id="c" gradientUnits="userSpaceOnUse" x1="522.516" y1="114.988" x2="522.516" y2="50.311"><stop offset="0" stop-color="#131313"/><stop offset=".5"/><stop offset=".5" stop-color="#393939"/><stop offset="1" stop-color="#131313"/></linearGradient><path fill="url(#c)" d="M452.64 56.09c3.7 3.08 5.55 7.43 5.55 13.06 0 5.57-1.23 10.45-3.69 14.66-2.46 4.21-6 7.46-10.62 9.77-4.62 2.31-10.04 3.46-16.26 3.46h-9.77l-3.38 16.7h-18.48l12.44-62.28h28.34c6.88.01 12.17 1.55 15.87 4.63zM437.36 79.9c1.92-1.89 2.89-4.44 2.89-7.64 0-2.13-.62-3.76-1.87-4.89-1.24-1.12-3.05-1.69-5.42-1.69h-8.88l-3.38 17.06h8.88c3.26 0 5.86-.95 7.78-2.84zm76.81-25.81c4.68 2.52 8.32 6 10.93 10.44 2.6 4.44 3.9 9.47 3.9 15.1 0 6.57-1.66 12.56-4.97 17.95-3.32 5.39-7.83 9.64-13.55 12.75-5.72 3.11-12.01 4.66-18.88 4.66-5.98 0-11.31-1.27-15.99-3.82s-8.32-6.06-10.93-10.53c-2.61-4.47-3.91-9.55-3.91-15.24 0-6.57 1.66-12.54 4.97-17.9 3.32-5.36 7.83-9.56 13.55-12.62 5.72-3.05 12.01-4.58 18.88-4.58 5.99.01 11.32 1.27 16 3.79zm-25.64 14.03c-2.64 1.63-4.75 3.86-6.35 6.71-1.6 2.84-2.4 5.95-2.4 9.33 0 2.9.61 5.52 1.82 7.86 1.21 2.34 2.86 4.19 4.93 5.55 2.07 1.36 4.35 2.04 6.84 2.04 2.96 0 5.71-.83 8.26-2.49 2.55-1.66 4.58-3.92 6.09-6.8 1.51-2.87 2.27-6.03 2.27-9.46 0-2.84-.56-5.42-1.69-7.73-1.13-2.31-2.7-4.13-4.71-5.46s-4.26-2-6.75-2c-2.9.01-5.67.83-8.31 2.45zm97.15-14.03c4.68 2.52 8.32 6 10.93 10.44 2.61 4.44 3.91 9.48 3.91 15.1 0 6.57-1.66 12.56-4.97 17.95-3.32 5.39-7.83 9.64-13.55 12.75-5.72 3.11-12.01 4.66-18.88 4.66-5.98 0-11.31-1.27-15.99-3.82s-8.32-6.06-10.93-10.53c-2.61-4.47-3.91-9.55-3.91-15.24 0-6.57 1.66-12.54 4.97-17.9 3.32-5.36 7.83-9.56 13.55-12.62 5.72-3.05 12.01-4.58 18.88-4.58 5.98.01 11.31 1.27 15.99 3.79zm-25.63 14.03c-2.64 1.63-4.75 3.86-6.35 6.71-1.6 2.84-2.4 5.95-2.4 9.33 0 2.9.61 5.52 1.82 7.86 1.21 2.34 2.86 4.19 4.93 5.55 2.07 1.36 4.35 2.04 6.84 2.04 2.96 0 5.71-.83 8.26-2.49 2.55-1.66 4.58-3.92 6.09-6.8 1.51-2.87 2.27-6.03 2.27-9.46 0-2.84-.56-5.42-1.69-7.73-1.13-2.31-2.7-4.13-4.71-5.46s-4.26-2-6.75-2c-2.9.01-5.67.83-8.31 2.45zm62.77 30.17h26.21l-3.11 15.46h-44.69l12.44-62.28h18.48l-9.33 46.82z"/><linearGradient id="d" gradientUnits="userSpaceOnUse" x1="522.519" y1="114.988" x2="522.519" y2="50.311"><stop offset="0" stop-color="#484848"/><stop offset="1"/></linearGradient><path fill="url(#d)" d="M569.69 51.31c5.79 0 11.01 1.23 15.52 3.66 4.49 2.42 8.04 5.8 10.54 10.06 2.5 4.27 3.77 9.18 3.77 14.6 0 6.36-1.62 12.22-4.83 17.42-3.21 5.21-7.64 9.38-13.17 12.39-5.54 3.01-11.73 4.54-18.4 4.54-5.79 0-11.01-1.24-15.51-3.7-4.49-2.45-8.04-5.86-10.54-10.15s-3.77-9.25-3.77-14.73c0-6.36 1.62-12.2 4.83-17.38s7.64-9.31 13.17-12.26c5.53-2.95 11.72-4.45 18.39-4.45m-4.8 49.31c3.14 0 6.11-.89 8.81-2.65 2.68-1.75 4.84-4.16 6.43-7.17 1.58-3 2.38-6.34 2.38-9.93 0-2.98-.6-5.73-1.79-8.17-1.2-2.46-2.9-4.43-5.06-5.86-2.17-1.44-4.63-2.17-7.3-2.17-3.08 0-6.05.87-8.83 2.59-2.77 1.71-5.02 4.09-6.7 7.07-1.68 2.98-2.53 6.28-2.53 9.82 0 3.05.65 5.85 1.93 8.32 1.29 2.48 3.06 4.48 5.27 5.93 2.23 1.48 4.72 2.22 7.39 2.22m-66.72-49.31c5.79 0 11.01 1.23 15.52 3.66 4.49 2.42 8.04 5.8 10.54 10.06 2.5 4.27 3.77 9.18 3.77 14.6 0 6.36-1.62 12.22-4.83 17.42-3.21 5.21-7.64 9.38-13.17 12.39-5.54 3.01-11.73 4.54-18.4 4.54-5.79 0-11.01-1.24-15.51-3.7-4.49-2.45-8.04-5.86-10.54-10.15s-3.77-9.25-3.77-14.73c0-6.36 1.62-12.2 4.83-17.38s7.64-9.31 13.17-12.26c5.53-2.95 11.72-4.45 18.39-4.45m-4.79 49.31c3.14 0 6.11-.89 8.81-2.65 2.68-1.75 4.84-4.16 6.43-7.17 1.58-3 2.38-6.34 2.38-9.93 0-2.98-.6-5.73-1.79-8.17-1.2-2.46-2.9-4.43-5.06-5.86-2.17-1.44-4.63-2.17-7.3-2.17-3.08 0-6.05.87-8.83 2.59-2.77 1.71-5.02 4.09-6.7 7.07-1.68 2.98-2.53 6.28-2.53 9.82 0 3.05.65 5.85 1.93 8.32 1.29 2.48 3.06 4.48 5.27 5.93 2.22 1.48 4.71 2.22 7.39 2.22m137.55-48.15-9.09 45.62c-.06.29.02.6.21.83.19.23.47.37.77.37h24.99l-2.71 13.46h-42.65l12.04-60.28h16.44m-194.15 0c6.6 0 11.72 1.48 15.22 4.39 3.49 2.91 5.19 6.93 5.19 12.29 0 5.36-1.19 10.12-3.55 14.15-2.35 4.01-5.78 7.17-10.2 9.38-4.46 2.23-9.78 3.36-15.81 3.36h-9.77c-.48 0-.89.34-.98.8l-3.21 15.9h-16.44l12.04-60.28h27.51M420.7 83.74h8.88c3.51 0 6.37-1.05 8.48-3.13 2.11-2.08 3.19-4.89 3.19-8.35 0-2.42-.74-4.31-2.2-5.63-1.43-1.29-3.48-1.95-6.09-1.95h-8.88c-.48 0-.89.34-.98.81l-3.38 17.06c-.06.29.02.6.21.83.19.22.47.36.77.36m148.99-33.43c-6.87 0-13.16 1.53-18.88 4.58-5.72 3.05-10.23 7.26-13.55 12.62-3.32 5.36-4.97 11.33-4.97 17.9 0 5.69 1.3 10.77 3.91 15.24 2.61 4.47 6.25 7.98 10.93 10.53 4.68 2.55 10.01 3.82 15.99 3.82 6.87 0 13.16-1.55 18.88-4.66 5.71-3.11 10.23-7.36 13.55-12.75 3.32-5.39 4.97-11.37 4.97-17.95 0-5.63-1.3-10.66-3.91-15.1-2.61-4.44-6.25-7.92-10.93-10.44-4.68-2.53-10.01-3.79-15.99-3.79zm-4.8 49.31c-2.49 0-4.77-.68-6.84-2.04-2.07-1.36-3.72-3.21-4.93-5.55-1.21-2.34-1.82-4.96-1.82-7.86 0-3.38.8-6.49 2.4-9.33 1.6-2.84 3.72-5.08 6.35-6.71 2.63-1.63 5.4-2.44 8.31-2.44 2.49 0 4.74.67 6.75 2s3.58 3.15 4.71 5.46c1.12 2.31 1.69 4.89 1.69 7.73 0 3.44-.76 6.59-2.27 9.46-1.51 2.87-3.54 5.14-6.09 6.8-2.54 1.65-5.29 2.48-8.26 2.48zm-66.72-49.31c-6.87 0-13.16 1.53-18.88 4.58-5.72 3.05-10.23 7.26-13.55 12.62-3.32 5.36-4.97 11.33-4.97 17.9 0 5.69 1.3 10.77 3.91 15.24 2.61 4.47 6.25 7.98 10.93 10.53 4.68 2.55 10.01 3.82 15.99 3.82 6.87 0 13.16-1.55 18.88-4.66 5.71-3.11 10.23-7.36 13.55-12.75 3.32-5.39 4.97-11.37 4.97-17.95 0-5.63-1.3-10.66-3.91-15.1-2.61-4.44-6.25-7.92-10.93-10.44-4.67-2.53-10-3.79-15.99-3.79zm-4.79 49.31c-2.49 0-4.77-.68-6.84-2.04-2.07-1.36-3.72-3.21-4.93-5.55-1.21-2.34-1.82-4.96-1.82-7.86 0-3.38.8-6.49 2.4-9.33 1.6-2.84 3.72-5.08 6.35-6.71 2.63-1.63 5.4-2.44 8.31-2.44 2.49 0 4.74.67 6.75 2s3.58 3.15 4.71 5.46c1.12 2.31 1.69 4.89 1.69 7.73 0 3.44-.76 6.59-2.27 9.46-1.51 2.87-3.54 5.14-6.09 6.8-2.55 1.65-5.3 2.48-8.26 2.48zm138.77-48.15h-18.48l-12.44 62.28h44.69l3.11-15.46h-26.21l9.33-46.82zm-195.37 0h-28.34L396 113.75h18.48l3.38-16.7h9.77c6.22 0 11.64-1.16 16.26-3.46s8.16-5.57 10.62-9.77c2.46-4.2 3.69-9.09 3.69-14.66 0-5.63-1.85-9.98-5.55-13.06-3.71-3.09-9-4.63-15.87-4.63zM420.7 82.74l3.38-17.06h8.88c2.37 0 4.18.56 5.42 1.69 1.24 1.13 1.87 2.75 1.87 4.89 0 3.2-.96 5.75-2.89 7.64-1.93 1.9-4.52 2.84-7.77 2.84h-8.89zm228.33 15.55z"/><g opacity=".25"><path d="M342.94 46.29c4.34 0 8.6 1.22 12.36 2.31l.15.04c2.87.81 5.59 1.58 7.44 1.58 1.8 0 3.36-.59 4.92-1.87a7.563 7.563 0 0 1 6.08-1.6c2.16.38 4.06 1.68 5.18 3.57L386.04 62c2.08 3.48 1.03 7.98-2.37 10.19-4.59 2.99-8.42 6.14-11.71 9.64-.02.02-.04.04-.06.07-7.77 8.08-10.68 16.64-13.24 24.18-1.73 5.09-3.23 9.49-5.9 13.1-3.55 4.79-8.57 7.22-14.93 7.22-11.68 0-18.04-8.16-18.59-16.59-6.18 8.64-14.76 14.05-23.3 14.05-2.2 0-4.36-.36-6.41-1.06-.28-.1-.56-.21-.84-.32-2.85 2.16-5.01 3.06-7.25 3.06-1.16 0-2.27-.24-3.29-.72h-29.1c-2.44 0-4.73-1.18-6.15-3.17a7.521 7.521 0 0 1-1.37-4.97c-.64.82-1.34 1.59-2.09 2.32-5.06 4.91-12.29 7.4-21.49 7.4-5.23 0-8.75-1.28-11.56-2.31-2.48-.88-4.27-1.52-7.19-1.52-2.38 0-7.08 1.33-9.82 2.53-.99.43-2.01.64-3.02.64-2.88 0-5.62-1.65-6.88-4.44l-4.95-10.96a7.546 7.546 0 0 1 3.33-9.77c2.22-1.18 8.43-4.59 15.29-9.2-5.1-2.81-8.5-8.28-8.5-14.7 0-7.91 3.99-15.79 10.94-21.62 6.57-5.51 15.22-8.68 23.74-8.68 8.74 0 16.3 2.18 21.86 6.29 5.56 4.12 8.87 10 9.46 16.74l25.68-19.94a7.526 7.526 0 0 1 4.63-1.59h28.27c.41 0 .82.03 1.21.1 1.67.22 3.28.6 4.79 1.13 2.35.83 4.56 2.04 6.57 3.6.19-.18.39-.35.6-.51 5.38-4.07 14.2-5.9 20.54-5.9m0-4c-5.94 0-14.74 1.47-21.22 5.52a27.241 27.241 0 0 0-5.17-2.47c-1.75-.62-3.62-1.06-5.55-1.32-.59-.09-1.19-.14-1.79-.14h-28.27c-2.55 0-5.07.86-7.08 2.43l-20.68 16.06c-1.79-5.09-5.08-9.54-9.62-12.91-6.25-4.63-14.63-7.08-24.24-7.08-9.44 0-19.02 3.5-26.31 9.61-7.86 6.59-12.36 15.59-12.36 24.69 0 5.46 2.07 10.59 5.64 14.38-4.69 2.94-8.58 5.07-10.31 5.99-5.36 2.85-7.59 9.42-5.1 14.95l4.95 10.96c1.87 4.13 6 6.8 10.53 6.8 1.6 0 3.16-.33 4.63-.97 2.48-1.09 6.63-2.2 8.21-2.2 2.23 0 3.52.46 5.85 1.29 2.93 1.07 6.98 2.54 12.91 2.54 8.86 0 16.16-2.14 21.74-6.36 2.17 2.99 5.66 4.78 9.35 4.78h28.31c1.3.48 2.67.72 4.08.72 2.6 0 5.08-.82 7.87-2.61 2.14.62 4.37.94 6.63.94 7.55 0 15.08-3.46 21.41-9.68 3.19 6.74 9.94 12.22 20.48 12.22 7.59 0 13.86-3.06 18.15-8.84 3.04-4.11 4.63-8.78 6.47-14.19 2.55-7.51 5.18-15.26 12.34-22.7l.1-.1c3.06-3.26 6.65-6.22 10.97-9.03 5.22-3.4 6.81-10.25 3.62-15.59l-6.96-11.68a11.523 11.523 0 0 0-9.92-5.63c-2.66 0-5.26.93-7.32 2.61-1.03.85-1.76.96-2.38.96-1.3 0-3.98-.76-6.35-1.43l-.15-.04c-3.81-1.12-8.55-2.48-13.46-2.48z"/><path d="m386.04 62-6.96-11.68a7.56 7.56 0 0 0-5.18-3.57c-.43-.08-.87-.11-1.3-.11-1.73 0-3.42.6-4.78 1.71-1.56 1.28-3.12 1.87-4.92 1.87-1.85 0-4.57-.77-7.44-1.58l-.15-.04c-3.76-1.08-8.02-2.31-12.36-2.31-6.34 0-15.16 1.83-20.56 5.91-.21.16-.41.33-.6.51a23.294 23.294 0 0 0-6.57-3.6c-1.51-.53-3.12-.91-4.79-1.13-.4-.06-.8-.1-1.21-.1h-28.27c-1.68 0-3.31.56-4.63 1.59l-25.68 19.94c-.59-6.73-3.89-12.62-9.46-16.74-5.56-4.12-13.12-6.29-21.86-6.29-8.51 0-17.16 3.16-23.74 8.68-6.95 5.83-10.94 13.71-10.94 21.62 0 6.42 3.39 11.89 8.5 14.7-6.85 4.61-13.07 8.02-15.29 9.2a7.546 7.546 0 0 0-3.33 9.77l4.95 10.96a7.549 7.549 0 0 0 6.88 4.44c1.01 0 2.04-.2 3.02-.64 2.73-1.2 7.44-2.53 9.82-2.53 2.92 0 4.71.64 7.19 1.52 2.81 1.02 6.34 2.31 11.56 2.31 9.2 0 16.43-2.49 21.49-7.4.75-.73 1.44-1.5 2.09-2.32-.14 1.75.34 3.51 1.37 4.97a7.555 7.555 0 0 0 6.15 3.17h29.1c1.02.47 2.13.72 3.29.72 2.24 0 4.39-.9 7.25-3.06.28.11.55.22.84.32 2.05.71 4.21 1.06 6.41 1.06 8.54 0 17.12-5.41 23.3-14.05.55 8.43 6.91 16.59 18.59 16.59 6.36 0 11.38-2.43 14.93-7.22 2.67-3.6 4.17-8 5.9-13.1 2.56-7.55 5.47-16.1 13.24-24.18.02-.02.04-.04.06-.07 3.29-3.5 7.12-6.66 11.71-9.64a7.558 7.558 0 0 0 2.38-10.2z"/><path d="M342.94 49.04c3.96 0 8.02 1.17 11.61 2.2l.16.04c3.06.87 5.95 1.68 8.19 1.68 2.43 0 4.61-.82 6.66-2.49a4.817 4.817 0 0 1 3.87-1.02c1.38.24 2.58 1.07 3.29 2.27l6.96 11.68c1.32 2.22.66 5.07-1.5 6.48-4.78 3.11-8.77 6.4-12.22 10.07l-.04.05c-8.2 8.52-11.21 17.39-13.86 25.21-1.66 4.87-3.09 9.08-5.5 12.34-3.05 4.11-7.21 6.11-12.72 6.11-10.31 0-15.39-7.04-15.85-14.02l-.5-7.68-4.48 6.26c-5.78 8.08-13.65 12.9-21.06 12.9-1.9 0-3.75-.31-5.52-.92-.19-.07-.38-.14-.57-.22l-.14-.06-1.44-.57-1.24.93c-2.92 2.21-4.46 2.5-5.59 2.5-.75 0-1.47-.16-2.13-.46l-.55-.26h-29.71a4.793 4.793 0 0 1-4.78-5.18l.71-9.08-5.62 7.17c-.56.72-1.18 1.41-1.84 2.04-4.53 4.4-11.11 6.63-19.57 6.63-4.74 0-7.87-1.14-10.64-2.15-2.53-.9-4.72-1.68-8.11-1.68-2.85 0-7.89 1.43-10.92 2.76-.61.27-1.26.4-1.92.4a4.83 4.83 0 0 1-4.38-2.82l-4.95-10.96a4.8 4.8 0 0 1 2.12-6.21c2.36-1.26 8.61-4.69 15.53-9.34l3.74-2.52-3.95-2.17c-4.43-2.44-7.07-7.03-7.07-12.29 0-7.1 3.63-14.21 9.95-19.51 6.09-5.11 14.09-8.03 21.97-8.03 8.15 0 15.14 1.99 20.22 5.75 4.94 3.66 7.83 8.77 8.35 14.77l.44 5.03 3.99-3.1L278 51.64c.84-.65 1.88-1.01 2.94-1.01h28.27c.26 0 .52.02.77.06l.04.01.04.01c1.48.19 2.9.53 4.23 1 2.07.73 4.02 1.8 5.8 3.18l1.85 1.43 1.71-1.6c.12-.11.25-.22.38-.32 4.87-3.69 13.22-5.36 18.91-5.36m0-2.75c-6.34 0-15.16 1.83-20.56 5.91-.21.16-.41.33-.6.51a23.294 23.294 0 0 0-6.57-3.6c-1.51-.53-3.12-.91-4.79-1.13-.4-.06-.8-.1-1.21-.1h-28.27c-1.68 0-3.31.56-4.63 1.59l-25.68 19.94c-.59-6.73-3.89-12.62-9.46-16.74-5.56-4.12-13.12-6.29-21.86-6.29-8.51 0-17.16 3.16-23.74 8.68-6.95 5.83-10.94 13.71-10.94 21.62 0 6.42 3.39 11.89 8.5 14.7-6.85 4.61-13.07 8.02-15.29 9.2a7.546 7.546 0 0 0-3.33 9.77l4.95 10.96a7.549 7.549 0 0 0 6.88 4.44c1.01 0 2.04-.2 3.02-.64 2.73-1.2 7.44-2.53 9.82-2.53 2.92 0 4.71.64 7.19 1.52 2.81 1.02 6.34 2.31 11.56 2.31 9.2 0 16.43-2.49 21.49-7.4.75-.73 1.44-1.5 2.09-2.32-.14 1.75.34 3.51 1.37 4.97a7.555 7.555 0 0 0 6.15 3.17h29.1c1.02.47 2.14.72 3.29.72 2.24 0 4.39-.9 7.25-3.06.28.11.55.22.84.32 2.05.71 4.21 1.06 6.41 1.06 8.54 0 17.12-5.41 23.3-14.05.55 8.43 6.91 16.59 18.59 16.59 6.36 0 11.38-2.43 14.93-7.22 2.67-3.6 4.17-8 5.9-13.1 2.56-7.55 5.47-16.1 13.24-24.18.02-.02.04-.04.06-.07 3.29-3.5 7.12-6.66 11.71-9.64a7.55 7.55 0 0 0 2.37-10.19l-6.96-11.68a7.56 7.56 0 0 0-5.18-3.57c-.43-.08-.87-.11-1.3-.11-1.73 0-3.42.6-4.78 1.71-1.56 1.28-3.12 1.87-4.92 1.87-1.85 0-4.57-.77-7.44-1.58l-.15-.04c-3.75-1.1-8.01-2.32-12.35-2.32z"/></g><path d="M346.94 42.29c4.34 0 8.6 1.22 12.36 2.31l.15.04c2.87.81 5.59 1.58 7.44 1.58 1.8 0 3.36-.59 4.92-1.87a7.563 7.563 0 0 1 6.08-1.6c2.16.38 4.06 1.68 5.18 3.57L390.04 58c2.08 3.48 1.03 7.98-2.37 10.19-4.59 2.99-8.42 6.14-11.71 9.64-.02.02-.04.04-.06.07-7.77 8.08-10.68 16.64-13.24 24.18-1.73 5.09-3.23 9.49-5.9 13.1-3.55 4.79-8.57 7.22-14.93 7.22-11.68 0-18.04-8.16-18.59-16.59-6.18 8.64-14.76 14.05-23.3 14.05-2.2 0-4.36-.36-6.41-1.06-.28-.1-.56-.21-.84-.32-2.85 2.16-5.01 3.06-7.25 3.06-1.16 0-2.27-.24-3.29-.72h-29.1c-2.44 0-4.73-1.18-6.15-3.17a7.521 7.521 0 0 1-1.37-4.97c-.64.82-1.34 1.59-2.09 2.32-5.06 4.91-12.29 7.4-21.49 7.4-5.23 0-8.75-1.28-11.56-2.31-2.48-.88-4.27-1.52-7.19-1.52-2.38 0-7.08 1.33-9.82 2.53-.99.43-2.01.64-3.02.64-2.88 0-5.62-1.65-6.88-4.44l-4.95-10.96a7.546 7.546 0 0 1 3.33-9.77c2.22-1.18 8.43-4.59 15.29-9.2-5.1-2.81-8.5-8.28-8.5-14.7 0-7.91 3.99-15.79 10.94-21.62 6.57-5.51 15.22-8.68 23.74-8.68 8.74 0 16.3 2.18 21.86 6.29 5.56 4.12 8.87 10 9.46 16.74l25.68-19.94a7.526 7.526 0 0 1 4.63-1.59h28.27c.41 0 .82.03 1.21.1 1.67.22 3.28.6 4.79 1.13 2.35.83 4.56 2.04 6.57 3.6.19-.18.39-.35.6-.51 5.38-4.07 14.2-5.9 20.54-5.9m0-4c-5.94 0-14.74 1.47-21.22 5.52a27.241 27.241 0 0 0-5.17-2.47c-1.75-.62-3.62-1.06-5.55-1.32-.59-.09-1.19-.14-1.79-.14h-28.27c-2.55 0-5.07.86-7.08 2.43l-20.68 16.06c-1.79-5.09-5.08-9.54-9.62-12.91-6.25-4.63-14.63-7.08-24.24-7.08-9.44 0-19.02 3.5-26.31 9.61-7.86 6.59-12.36 15.59-12.36 24.69 0 5.46 2.07 10.59 5.64 14.38-4.69 2.94-8.58 5.07-10.31 5.99-5.36 2.85-7.59 9.42-5.1 14.95l4.95 10.96c1.87 4.13 6 6.8 10.53 6.8 1.6 0 3.16-.33 4.63-.97 2.48-1.09 6.63-2.2 8.21-2.2 2.23 0 3.52.46 5.85 1.29 2.93 1.07 6.98 2.54 12.91 2.54 8.86 0 16.16-2.14 21.74-6.36 2.17 2.99 5.66 4.78 9.35 4.78h28.31c1.3.48 2.67.72 4.08.72 2.6 0 5.08-.82 7.87-2.61 2.14.62 4.37.94 6.63.94 7.55 0 15.08-3.46 21.41-9.68 3.19 6.74 9.94 12.22 20.48 12.22 7.59 0 13.86-3.06 18.15-8.84 3.04-4.11 4.63-8.78 6.47-14.19 2.55-7.51 5.18-15.26 12.34-22.7l.1-.1c3.06-3.26 6.65-6.22 10.97-9.03 5.22-3.4 6.81-10.25 3.62-15.59l-6.96-11.68a11.523 11.523 0 0 0-9.92-5.63c-2.66 0-5.26.93-7.32 2.61-1.03.85-1.76.96-2.38.96-1.3 0-3.98-.76-6.35-1.43l-.15-.04c-3.81-1.12-8.55-2.48-13.46-2.48z"/><linearGradient id="e" gradientUnits="userSpaceOnUse" x1="284.48" y1="42.288" x2="284.48" y2="122.402"><stop offset="0" stop-color="#ebebeb"/><stop offset=".5" stop-color="#fff"/><stop offset=".5" stop-color="#d6d6d6"/><stop offset="1" stop-color="#ebebeb"/></linearGradient><path fill="url(#e)" d="m390.04 58-6.96-11.68a7.56 7.56 0 0 0-5.18-3.57c-.43-.08-.87-.11-1.3-.11-1.73 0-3.42.6-4.78 1.71-1.56 1.28-3.12 1.87-4.92 1.87-1.85 0-4.57-.77-7.44-1.58l-.15-.04c-3.76-1.08-8.02-2.31-12.36-2.31-6.34 0-15.16 1.83-20.56 5.91-.21.16-.41.33-.6.51a23.294 23.294 0 0 0-6.57-3.6c-1.51-.53-3.12-.91-4.79-1.13-.4-.06-.8-.1-1.21-.1h-28.27c-1.68 0-3.31.56-4.63 1.59l-25.68 19.94c-.59-6.73-3.89-12.62-9.46-16.74-5.56-4.12-13.12-6.29-21.86-6.29-8.51 0-17.16 3.16-23.74 8.68-6.95 5.83-10.94 13.71-10.94 21.62 0 6.42 3.39 11.89 8.5 14.7-6.85 4.61-13.07 8.02-15.29 9.2a7.546 7.546 0 0 0-3.33 9.77l4.95 10.96a7.549 7.549 0 0 0 6.88 4.44c1.01 0 2.04-.2 3.02-.64 2.73-1.2 7.44-2.53 9.82-2.53 2.92 0 4.71.64 7.19 1.52 2.81 1.02 6.34 2.31 11.56 2.31 9.2 0 16.43-2.49 21.49-7.4.75-.73 1.44-1.5 2.09-2.32-.14 1.75.34 3.51 1.37 4.97a7.555 7.555 0 0 0 6.15 3.17h29.1c1.02.47 2.13.72 3.29.72 2.24 0 4.39-.9 7.25-3.06.28.11.55.22.84.32 2.05.71 4.21 1.06 6.41 1.06 8.54 0 17.12-5.41 23.3-14.05.55 8.43 6.91 16.59 18.59 16.59 6.36 0 11.38-2.43 14.93-7.22 2.67-3.6 4.17-8 5.9-13.1 2.56-7.55 5.47-16.1 13.24-24.18.02-.02.04-.04.06-.07 3.29-3.5 7.12-6.66 11.71-9.64a7.558 7.558 0 0 0 2.38-10.2z"/><linearGradient id="f" gradientUnits="userSpaceOnUse" x1="284.48" y1="122.402" x2="284.48" y2="42.288"><stop offset="0" stop-color="#fff"/><stop offset="1" stop-color="#ccc"/></linearGradient><path fill="url(#f)" d="M346.94 45.04c3.96 0 8.02 1.17 11.61 2.2l.16.04c3.06.87 5.95 1.68 8.19 1.68 2.43 0 4.61-.82 6.66-2.49a4.817 4.817 0 0 1 3.87-1.02c1.38.24 2.58 1.07 3.29 2.27l6.96 11.68c1.32 2.22.66 5.07-1.5 6.48-4.78 3.11-8.77 6.4-12.22 10.07l-.04.05c-8.2 8.52-11.21 17.39-13.86 25.21-1.66 4.87-3.09 9.08-5.5 12.34-3.05 4.11-7.21 6.11-12.72 6.11-10.31 0-15.39-7.04-15.85-14.02l-.5-7.68-4.48 6.26c-5.78 8.08-13.65 12.9-21.06 12.9-1.9 0-3.75-.31-5.52-.92-.19-.07-.38-.14-.57-.22l-.14-.06-1.44-.57-1.24.93c-2.92 2.21-4.46 2.5-5.59 2.5-.75 0-1.47-.16-2.13-.46l-.55-.26h-29.71a4.793 4.793 0 0 1-4.78-5.18l.71-9.08-5.62 7.17c-.56.72-1.18 1.41-1.84 2.04-4.53 4.4-11.11 6.63-19.57 6.63-4.74 0-7.87-1.14-10.64-2.15-2.53-.9-4.72-1.68-8.11-1.68-2.85 0-7.89 1.43-10.92 2.76-.61.27-1.26.4-1.92.4a4.83 4.83 0 0 1-4.38-2.82l-4.95-10.96a4.8 4.8 0 0 1 2.12-6.21c2.36-1.26 8.61-4.69 15.53-9.34l3.74-2.52-3.95-2.17c-4.43-2.44-7.07-7.03-7.07-12.29 0-7.1 3.63-14.21 9.95-19.51 6.09-5.11 14.09-8.03 21.97-8.03 8.15 0 15.14 1.99 20.22 5.75 4.94 3.66 7.83 8.77 8.35 14.77l.44 5.03 3.99-3.1L282 47.64c.84-.65 1.88-1.01 2.94-1.01h28.27c.26 0 .52.02.77.06l.04.01.04.01c1.48.19 2.9.53 4.23 1 2.07.73 4.02 1.8 5.8 3.18l1.85 1.43 1.71-1.6c.12-.11.25-.22.38-.32 4.87-3.69 13.22-5.36 18.91-5.36m0-2.75c-6.34 0-15.16 1.83-20.56 5.91-.21.16-.41.33-.6.51a23.294 23.294 0 0 0-6.57-3.6c-1.51-.53-3.12-.91-4.79-1.13-.4-.06-.8-.1-1.21-.1h-28.27c-1.68 0-3.31.56-4.63 1.59l-25.68 19.94c-.59-6.73-3.89-12.62-9.46-16.74-5.56-4.12-13.12-6.29-21.86-6.29-8.51 0-17.16 3.16-23.74 8.68-6.95 5.83-10.94 13.71-10.94 21.62 0 6.42 3.39 11.89 8.5 14.7-6.85 4.61-13.07 8.02-15.29 9.2a7.546 7.546 0 0 0-3.33 9.77l4.95 10.96a7.549 7.549 0 0 0 6.88 4.44c1.01 0 2.04-.2 3.02-.64 2.73-1.2 7.44-2.53 9.82-2.53 2.92 0 4.71.64 7.19 1.52 2.81 1.02 6.34 2.31 11.56 2.31 9.2 0 16.43-2.49 21.49-7.4.75-.73 1.44-1.5 2.09-2.32-.14 1.75.34 3.51 1.37 4.97a7.555 7.555 0 0 0 6.15 3.17h29.1c1.02.47 2.14.72 3.29.72 2.24 0 4.39-.9 7.25-3.06.28.11.55.22.84.32 2.05.71 4.21 1.06 6.41 1.06 8.54 0 17.12-5.41 23.3-14.05.55 8.43 6.91 16.59 18.59 16.59 6.36 0 11.38-2.43 14.93-7.22 2.67-3.6 4.17-8 5.9-13.1 2.56-7.55 5.47-16.1 13.24-24.18.02-.02.04-.04.06-.07 3.29-3.5 7.12-6.66 11.71-9.64a7.55 7.55 0 0 0 2.37-10.19l-6.96-11.68a7.56 7.56 0 0 0-5.18-3.57c-.43-.08-.87-.11-1.3-.11-1.73 0-3.42.6-4.78 1.71-1.56 1.28-3.12 1.87-4.92 1.87-1.85 0-4.57-.77-7.44-1.58l-.15-.04c-3.75-1.1-8.01-2.32-12.35-2.32z"/><linearGradient id="g" gradientUnits="userSpaceOnUse" x1="284.48" y1="114.854" x2="284.48" y2="49.836"><stop offset="0" stop-color="#131313"/><stop offset=".5"/><stop offset=".5" stop-color="#393939"/><stop offset="1" stop-color="#131313"/></linearGradient><path fill="url(#g)" d="m324.21 89.45-3.88-1.29c-.02-.01-.04-.01-.06-.01a.356.356 0 0 0-.29.11c-.1.11-.15.26-.14.41l.02.18c.04.5.09 1.01.11 1.52.02.62.01 1.22 0 1.82 0 .2.1.38.26.43l2.55.85c-.28.68-.58 1.35-.89 2.01l3.5 1.22c.6-1.31 1.15-2.67 1.64-4.07 1.55-4.36 2.47-8.81 2.77-13.1h-3.83c-.17 3.24-.75 6.6-1.76 9.92zm-38.27-9.15 3.87 1.29c.02.01.04.01.06.01.1.01.21-.03.29-.12.1-.1.15-.26.14-.41-.06-.63-.11-1.26-.14-1.89-.02-.56-.01-1.09 0-1.63 0-.2-.1-.38-.26-.43l-2.52-.84c4.85-11.76 14.09-19.81 23.02-19.81 1.03 0 2.03.12 3.01.34l-1.89 5.73c-.05.16-.03.34.06.46.06.09.14.13.23.14.05.01.09 0 .14-.01.48-.16 1-.32 1.49-.43.48-.11.97-.18 1.5-.21.15-.01.29-.13.34-.3l1.38-4.18c.59.31 1.16.68 1.71 1.09.59-.53 1.18-1.04 1.76-1.55.5-.44 1.01-.87 1.52-1.33.25-.22.5-.39.72-.51-1.68-1.56-3.58-2.75-5.68-3.49-1.12-.4-2.29-.65-3.49-.79v-.01h-28.27l-39.99 31.06-3.07 8.94h-9.38c-.32 5.82-5.58 8.35-8.31 8.35-2.27 0-3.57-.72-4.82-1.4-1.38-.76-2.79-1.53-5.71-1.53h-4.1l2.99-.96c22.01-7.1 34.63-17.41 34.63-28.28 0-10.73-9.37-17.67-23.86-17.67-14.19 0-27.12 10.85-27.12 22.75 0 5.24 3.83 9.17 8.92 9.17 4.58 0 9.32-3.4 9.32-9.09 0-.89-.24-2.17-.61-3.16-.39-1.13-.01-2.71 1-4.11 1.17-1.65 2.88-2.64 4.58-2.64 3.4 0 5.12 1.91 5.12 5.66 0 11.02-25.35 27.38-39.12 34.72l4.95 10.96c3.08-1.35 8.91-3.17 12.84-3.17 4.24 0 7.04 1 9.75 1.97 2.66.97 5.18 1.86 9.01 1.86 14.41 0 21.57-6.97 21.91-21.26.01-.17.02-.33.02-.49v-.5h23.69l-1.95 5.58h-7.35l-5.24 15.08h29.39c.02-.21.05-.42.12-.63l.26-.83c.18-.58.37-1.16.54-1.75.69-2.4 1.76-4.51 3.01-6.45-2.8-6.41-2.95-14.94-.41-23.3zm-14.79 2.38h-11.98l17-14.64-5.02 14.64zm105.44-32.49c-2.9 2.38-6.17 3.58-9.7 3.58-2.95 0-6.21-.94-9.66-1.91-3.47-1-7.05-2.02-10.29-2.02-5.11 0-12.22 1.52-16 4.38l-7.4 22.61h14.58l2.41-7.61.13-.11c1.48-1.13 3.24-1.59 6.05-1.59 1.11 0 2.02.33 2.98.69 1.09.4 2.21.8 3.81.8 2.88 0 5.67-.64 8.07-1.86l.52.84c-23.21 17.85-31.34 25.12-31.34 36.62 0 5.1 3.44 10.24 11.09 10.24 8.51 0 10.57-6.04 13.68-15.2 2.68-7.9 6.02-17.71 14.95-26.99 3.67-3.91 7.96-7.46 13.09-10.8l-6.97-11.67zm-68.61 34c.32.52.52 1.13.52 1.79 0 1.9-1.54 3.44-3.44 3.44-.23 0-.45-.02-.66-.07-2.17 3.49-10.52 16.94-11.84 18.86-1.52 2.22-6.61 6.22-7.27 5.73-.66-.5 1.12-5.42 2.68-7.86 1.79-3.17 11.55-15.23 14.12-18.4-.29-.5-.47-1.08-.47-1.7 0-1.9 1.54-3.44 3.44-3.44.2 0 .38.03.57.06 2.03-3.28 10.58-17.04 11.92-18.99 1.52-2.22 6.61-6.22 7.27-5.73.66.5-1.12 5.42-2.68 7.86-1.8 3.19-11.64 15.35-14.16 18.45z"/><linearGradient id="h" gradientUnits="userSpaceOnUse" x1="284.48" y1="114.854" x2="284.48" y2="49.836"><stop offset="0" stop-color="#484848"/><stop offset="1"/></linearGradient><path fill="url(#h)" d="M346.94 50.84c3.15 0 6.79 1.05 10.02 1.98l.17.05c3.46.98 6.73 1.9 9.77 1.9 3.41 0 6.57-1.04 9.42-3.1l5.9 9.89c-4.82 3.21-8.91 6.63-12.47 10.42-9.09 9.45-12.46 19.38-15.17 27.36-3.08 9.05-4.93 14.52-12.74 14.52-6.97 0-10.09-4.64-10.09-9.24 0-11.04 8.02-18.2 30.95-35.82.41-.31.51-.89.24-1.32l-.52-.84a1.001 1.001 0 0 0-1.3-.36c-2.26 1.15-4.89 1.75-7.62 1.75-1.43 0-2.42-.36-3.45-.74-.94-.35-2-.75-3.33-.75-3.05 0-4.98.52-6.67 1.81l-.13.11a.95.95 0 0 0-.33.48l-2.19 6.92h-12.47l6.88-21c3.66-2.65 10.33-4.02 15.13-4.02m-123.62.09c13.89 0 22.86 6.54 22.86 16.67 0 10.41-12.37 20.37-33.94 27.33l-2.99.96a1 1 0 0 0 .31 1.95h4.1c2.67 0 3.91.68 5.25 1.41 1.3.71 2.78 1.52 5.29 1.52 2.92 0 8.37-2.46 9.21-8.35h8.47a1 1 0 0 0 .95-.68l2.97-8.66 39.48-30.66h27.83c1.16.13 2.25.38 3.26.74 1.58.56 3.07 1.4 4.43 2.49-.4.36-.8.7-1.2 1.05l-.11.09c-.39.34-.79.68-1.18 1.03-.4-.26-.78-.49-1.17-.7a.995.995 0 0 0-1.42.56l-1.26 3.83c-.42.04-.82.11-1.22.19-.15.03-.29.07-.44.1l1.55-4.71a1 1 0 0 0-.73-1.29c-1.08-.24-2.17-.37-3.23-.37-9.28 0-18.9 8.21-23.94 20.43-.11.26-.1.54.02.8.12.25.33.45.59.53l2.1.7c0 .42-.01.85.01 1.3.02.38.04.76.07 1.11l-2.98-.99a1.039 1.039 0 0 0-.78.06c-.24.12-.42.34-.5.6-2.55 8.4-2.45 16.93.26 23.51-1.31 2.11-2.24 4.17-2.84 6.26-.17.57-.35 1.15-.53 1.73l-.24.76h-27.17L259 99.19h6.63c.43 0 .8-.27.94-.67l1.95-5.58c.11-.31.06-.64-.13-.91-.19-.26-.49-.42-.82-.42h-23.69c-.55 0-1 .45-1 1v.5c0 .12-.01.23-.01.35l-.01.12c-.33 13.84-6.98 20.28-20.91 20.28-3.72 0-6.12-.87-8.7-1.81-2.78-.99-5.66-2.02-10.06-2.02-3.87 0-9.16 1.6-12.33 2.87l-4.16-9.22c14.81-8 38.83-23.94 38.83-35.16 0-4.3-2.17-6.66-6.12-6.66-2.02 0-4.04 1.14-5.39 3.05-1.21 1.68-1.64 3.56-1.13 5.05.32.87.55 2.02.55 2.81 0 5.06-4.23 8.09-8.32 8.09-4.52 0-7.92-3.51-7.92-8.17 0-11.39 12.45-21.76 26.12-21.76m35.85 32.75h11.98a1 1 0 0 0 .95-.68l5.02-14.64c.15-.43-.01-.9-.39-1.15-.17-.11-.37-.17-.56-.17-.23 0-.47.08-.65.24l-17 14.64c-.32.27-.43.71-.28 1.11s.51.65.93.65m64.64-24.38c-.38 1.52-1.44 4.22-2.51 5.91-.01.02-.02.03-.03.05-1.38 2.45-8.17 11.06-14.06 18.3-.27.33-.3.79-.08 1.16.25.4.37.83.37 1.27 0 1.34-1.09 2.44-2.44 2.44-.15 0-.3-.02-.47-.05-.06-.01-.13-.02-.19-.02-.34 0-.66.18-.85.47-1.74 2.8-10.48 16.87-11.81 18.83-1.1 1.61-3.89 3.89-5.44 4.87.38-1.52 1.44-4.22 2.51-5.91.01-.02.02-.03.03-.05 1.79-3.17 12-15.76 14.03-18.26.26-.32.3-.77.09-1.13-.22-.39-.33-.79-.33-1.2 0-1.35 1.09-2.44 2.44-2.44.13 0 .27.02.4.04.06.01.11.01.17.01.34 0 .67-.18.85-.47 1.75-2.82 10.55-16.98 11.89-18.95 1.09-1.6 3.89-3.89 5.43-4.87m4.89 21.23a48.86 48.86 0 0 1-2.62 11.77c-.38 1.06-.79 2.12-1.24 3.16l-1.59-.55c.16-.36.31-.71.45-1.05.11-.26.1-.54-.02-.8-.12-.25-.33-.44-.59-.53l-2.12-.71c.01-.47.01-.96-.01-1.48-.01-.32-.03-.63-.06-.93l2.99.99a1.039 1.039 0 0 0 .78-.06c.24-.12.42-.34.5-.6.93-3.06 1.51-6.15 1.74-9.21h1.79m18.24-30.69c-5.11 0-12.22 1.52-16 4.38l-7.4 22.61h14.58l2.41-7.61.13-.11c1.48-1.13 3.24-1.59 6.05-1.59 1.11 0 2.02.33 2.98.69 1.09.4 2.21.8 3.81.8 2.88 0 5.67-.64 8.07-1.86l.52.84c-23.21 17.85-31.34 25.12-31.34 36.62 0 5.1 3.44 10.24 11.09 10.24 8.51 0 10.57-6.04 13.68-15.2 2.68-7.9 6.02-17.71 14.95-26.99 3.67-3.91 7.96-7.46 13.09-10.8l-6.96-11.68c-2.9 2.38-6.17 3.58-9.7 3.58-2.95 0-6.21-.94-9.66-1.91-3.48-1-7.06-2.01-10.3-2.01zm-123.62.09c-14.19 0-27.12 10.85-27.12 22.75 0 5.24 3.83 9.17 8.92 9.17 4.58 0 9.32-3.4 9.32-9.09 0-.89-.24-2.17-.61-3.16-.39-1.13-.01-2.71 1-4.11 1.17-1.65 2.88-2.64 4.58-2.64 3.4 0 5.12 1.91 5.12 5.66 0 11.02-25.35 27.38-39.12 34.72l4.95 10.96c3.08-1.35 8.91-3.17 12.84-3.17 4.24 0 7.04 1 9.75 1.97 2.66.97 5.18 1.86 9.01 1.86 14.41 0 21.57-6.97 21.91-21.26.01-.17.02-.33.02-.49v-.5h23.69l-1.95 5.58h-7.35l-5.24 15.08h29.39c.02-.21.05-.42.12-.63l.26-.83c.18-.58.37-1.16.54-1.75.69-2.4 1.76-4.51 3.01-6.45-2.82-6.42-2.96-14.95-.43-23.31l3.87 1.29c.02.01.04.01.06.01h.04c.09 0 .18-.04.25-.12.1-.1.15-.26.14-.41-.06-.63-.11-1.26-.14-1.89-.02-.56-.01-1.09 0-1.63 0-.2-.1-.38-.26-.43l-2.52-.84c4.85-11.76 14.09-19.81 23.02-19.81 1.03 0 2.03.12 3.01.34l-1.89 5.73c-.05.16-.03.34.06.46.06.09.14.13.23.14h.04c.03 0 .06 0 .09-.02.48-.16 1-.32 1.49-.43.48-.11.97-.18 1.5-.21.15-.01.29-.13.34-.3l1.38-4.18c.59.31 1.16.68 1.71 1.09.59-.53 1.18-1.04 1.76-1.55.5-.44 1.01-.87 1.52-1.33.25-.22.5-.39.72-.51-1.68-1.56-3.58-2.75-5.68-3.49-1.12-.4-2.29-.65-3.49-.79v-.01h-28.27l-39.99 31.06-3.07 8.94h-9.38c-.32 5.82-5.58 8.35-8.31 8.35-2.27 0-3.57-.72-4.82-1.4-1.38-.76-2.79-1.53-5.71-1.53h-4.1l2.99-.96c22.01-7.1 34.63-17.41 34.63-28.28.03-10.72-9.34-17.65-23.83-17.65zm35.85 32.75 17-14.64-5.02 14.64h-11.98zm65.49-24.84c-1.08 0-5.69 3.68-7.12 5.77-1.33 1.95-9.88 15.71-11.92 18.99-.19-.03-.37-.06-.57-.06a3.44 3.44 0 0 0-3.44 3.44c0 .62.18 1.2.47 1.7-2.58 3.17-12.33 15.23-14.12 18.4-1.56 2.44-3.34 7.37-2.68 7.86.04.03.09.04.16.04 1.07 0 5.69-3.68 7.12-5.77 1.32-1.93 9.67-15.37 11.84-18.86.21.04.44.07.66.07 1.9 0 3.44-1.54 3.44-3.44 0-.66-.2-1.27-.52-1.79 2.52-3.1 12.36-15.26 14.16-18.44 1.56-2.44 3.34-7.37 2.68-7.86a.254.254 0 0 0-.16-.05zm5.13 21.69zm0 0h-3.83c-.16 3.24-.74 6.59-1.75 9.92l-3.88-1.29c-.02-.01-.04-.01-.06-.01h-.04c-.09 0-.18.04-.26.12-.1.11-.15.26-.14.41l.02.18c.04.5.09 1.01.11 1.52.02.62.01 1.22 0 1.82 0 .2.1.38.26.43l2.55.85c-.28.68-.58 1.35-.89 2.01l3.5 1.22c.6-1.31 1.15-2.67 1.64-4.07 1.56-4.36 2.47-8.81 2.77-13.11z"/><path opacity=".05" d="M120.72 0H39.28C17.62 0 0 17.62 0 39.28v81.44C0 142.38 17.62 160 39.28 160h81.44c21.66 0 39.28-17.62 39.28-39.28V39.28C160 17.62 142.38 0 120.72 0zm37.83 120.72c0 20.86-16.97 37.83-37.83 37.83H39.28c-20.86 0-37.83-16.97-37.83-37.83V39.28c0-20.86 16.97-37.83 37.83-37.83h81.44c20.86 0 37.83 16.97 37.83 37.83v81.44z"/><path opacity=".1" d="M120.72 1.45H39.28c-20.86 0-37.83 16.97-37.83 37.83v81.44c0 20.86 16.97 37.83 37.83 37.83h81.44c20.86 0 37.83-16.97 37.83-37.83V39.28c0-20.86-16.97-37.83-37.83-37.83zm36.37 119.27c0 20.06-16.32 36.37-36.37 36.37H39.28c-20.06 0-36.37-16.32-36.37-36.37V39.28c0-20.06 16.32-36.37 36.37-36.37h81.44c20.06 0 36.37 16.32 36.37 36.37v81.44z"/><path opacity=".2" d="M120.72 2.91H39.28c-20.06 0-36.37 16.32-36.37 36.37v81.44c0 20.06 16.32 36.37 36.37 36.37h81.44c20.06 0 36.37-16.32 36.37-36.37V39.28c0-20.05-16.32-36.37-36.37-36.37zm34.92 117.81c0 19.25-15.66 34.92-34.92 34.92H39.28c-19.25 0-34.92-15.66-34.92-34.92V39.28c0-19.25 15.66-34.92 34.92-34.92h81.44c19.25 0 34.92 15.66 34.92 34.92v81.44z"/><path opacity=".3" d="M120.72 4.36H39.28c-19.25 0-34.92 15.66-34.92 34.92v81.44c0 19.25 15.66 34.92 34.92 34.92h81.44c19.25 0 34.92-15.66 34.92-34.92V39.28c0-19.25-15.67-34.92-34.92-34.92zm33.46 116.36c0 18.45-15.01 33.46-33.46 33.46H39.28c-18.45 0-33.46-15.01-33.46-33.46V39.28c0-18.45 15.01-33.46 33.46-33.46h81.44c18.45 0 33.46 15.01 33.46 33.46v81.44z"/><path d="M120.72 5.82H39.28c-18.45 0-33.46 15.01-33.46 33.46v81.44c0 18.45 15.01 33.46 33.46 33.46h81.44c18.45 0 33.46-15.01 33.46-33.46V39.28c0-18.45-15.01-33.46-33.46-33.46zm30.19 114.9c0 16.65-13.54 30.19-30.19 30.19H39.28c-16.65 0-30.19-13.54-30.19-30.19V39.28c0-16.65 13.54-30.19 30.19-30.19h81.44c16.65 0 30.19 13.54 30.19 30.19v81.44z"/><linearGradient id="i" gradientUnits="userSpaceOnUse" x1="80" y1="150.907" x2="80" y2="9.093"><stop offset="0" stop-color="#f90"/><stop offset="1" stop-color="#ff0"/></linearGradient><path fill="url(#i)" d="M120.72 9.09H39.28c-16.65 0-30.19 13.54-30.19 30.19v81.44c0 16.65 13.54 30.19 30.19 30.19h81.44c16.65 0 30.19-13.54 30.19-30.19V39.28c0-16.64-13.55-30.19-30.19-30.19zm26.19 111.63c0 14.4-11.78 26.19-26.19 26.19H39.28c-5.4 0-10.43-1.66-14.62-4.49-.7-.47-1.37-.98-2.02-1.51a26.612 26.612 0 0 1-3.56-3.56 26.28 26.28 0 0 1-3.93-6.46 25.958 25.958 0 0 1-2.07-10.17V39.28c0-.9.05-1.79.14-2.67.81-7.9 5.16-14.79 11.44-19.03.7-.47 1.42-.91 2.16-1.32 2.23-1.21 4.64-2.11 7.2-2.64 1.7-.35 3.46-.53 5.26-.53h81.44c14.4 0 26.19 11.78 26.19 26.19v81.44z"/><path fill="#FC0" d="M120.72 13.09H39.28c-1.8 0-3.56.18-5.26.53-2.55.53-4.97 1.43-7.2 2.64-.74.4-1.46.84-2.16 1.32-6.27 4.25-10.63 11.13-11.44 19.03-.09.88-.14 1.77-.14 2.67v81.44c0 3.6.74 7.04 2.07 10.17a26.399 26.399 0 0 0 9.51 11.53c4.18 2.83 9.21 4.49 14.62 4.49h81.44c14.4 0 26.19-11.78 26.19-26.19V39.28c0-14.4-11.79-26.19-26.19-26.19z"/><radialGradient id="j" cx="80" cy="80.279" r="60.388" gradientUnits="userSpaceOnUse"><stop offset=".55" stop-color="#404040"/><stop offset=".98" stop-color="#131313"/></radialGradient><circle fill="url(#j)" cx="80" cy="80.28" r="60.39"/><circle fill="#FFF" cx="80" cy="80.28" r="29.78"/><path d="M67.65 72.63c0-1.74.45-3.33 1.35-4.76.9-1.43 2.27-2.58 4.11-3.43s4.09-1.28 6.76-1.28 4.92.43 6.74 1.28c1.82.85 3.18 2 4.08 3.43.9 1.43 1.35 3.02 1.35 4.76s-.41 3.25-1.23 4.54c-.82 1.29-1.92 2.3-3.31 3.04 1.74.84 3.08 1.99 4.01 3.45.93 1.47 1.4 3.18 1.4 5.14 0 2.29-.58 4.26-1.74 5.92-1.16 1.66-2.73 2.92-4.71 3.79-1.98.87-4.18 1.3-6.59 1.3-2.42 0-4.61-.44-6.59-1.3-1.98-.87-3.55-2.13-4.71-3.79-1.16-1.66-1.74-3.63-1.74-5.92 0-2 .47-3.73 1.4-5.19.93-1.46 2.25-2.6 3.96-3.41-3.03-1.6-4.54-4.12-4.54-7.57zm8.55 12.39c-.93.82-1.4 1.96-1.4 3.41 0 1.35.46 2.46 1.38 3.33.92.87 2.15 1.3 3.7 1.3 1.55 0 2.76-.43 3.65-1.3.89-.87 1.33-1.98 1.33-3.33 0-1.42-.46-2.54-1.38-3.38-.92-.84-2.12-1.26-3.6-1.26-1.52 0-2.75.41-3.68 1.23zm6.69-14.2c-.76-.72-1.76-1.09-3.02-1.09s-2.26.37-3.02 1.11c-.76.74-1.14 1.77-1.14 3.09 0 1.26.39 2.25 1.16 2.97s1.77 1.09 3 1.09c1.22 0 2.22-.37 3-1.11.77-.74 1.16-1.74 1.16-3 0-1.32-.38-2.34-1.14-3.06z"/><linearGradient id="k" gradientUnits="userSpaceOnUse" x1="80.431" y1="111.558" x2="80.431" y2="25.995"><stop offset=".2" stop-color="#fff" stop-opacity="0"/><stop offset=".9" stop-color="#fff" stop-opacity=".45"/></linearGradient><ellipse fill="url(#k)" cx="80.43" cy="68.78" rx="49.86" ry="42.78"/><linearGradient id="l" gradientUnits="userSpaceOnUse" x1="76.054" y1="97.107" x2="76.054" y2="32.944"><stop offset=".2" stop-color="#fff" stop-opacity="0"/><stop offset=".9" stop-color="#fff" stop-opacity=".65"/></linearGradient><ellipse fill="url(#l)" cx="76.05" cy="65.03" rx="37.39" ry="32.08"/><linearGradient id="m" gradientUnits="userSpaceOnUse" x1="80" y1="146.906" x2="80" y2="72.552"><stop offset="0" stop-color="#fff" stop-opacity="0"/><stop offset="1" stop-opacity=".15"/></linearGradient><path fill="url(#m)" d="M80 80.27c-25.11 0-48.27-2.87-66.91-7.72v48.17c0 3.6.74 7.04 2.07 10.17a26.399 26.399 0 0 0 9.51 11.53c4.18 2.83 9.21 4.49 14.62 4.49h81.44c14.4 0 26.19-11.78 26.19-26.19V72.55c-18.65 4.85-41.81 7.72-66.92 7.72z"/><path d="M32.95 104.72V59.51c0-3.55-2.88-6.44-6.43-6.44H9.09v58.08h17.42c3.55 0 6.44-2.88 6.44-6.43z"/><path fill="#FFF" d="M19.98 71.05c-.61-.45-1.04-1.32-1.55-2.63l-1.96-5.09c-.15-.37-.41-.87-.65-1.12-.34-.35-.8-.53-2.09-.53h-.7v7.74h3.15v2.6H10.7V59.09h2.66c2.42 0 3.22.27 4.02 1.1.47.47.8 1.05 1.26 2.25l1.99 5.17c.29.77.53.97.77 1.12.32.2.58.33 1.75.33 1.11 0 1.57-.15 1.81-.4.15-.14.29-.45.29-1.1v-3.84c0-.75-.15-.97-.32-1.15-.17-.18-.5-.35-2.49-.4v-2.75c2.83.05 3.69-.11 4.39.62.51.52.81 1.13.81 2.58v5.29c0 1.53-.31 2.32-.84 2.87-.71.73-1.58 1.02-3.54 1.02-1.83 0-2.48-.15-3.28-.75zm7.68 12.45v3.47H12.91v3.07H10.7v-9.01h2.21v3.34h2.84v-8.11l2.01.01c.63 0 1.04.15 1.65.57l7.24 5.05c.72.51 1.01.88 1.01 1.61zm-2.08.44-7.75-5.47v5.89h7.75v-.42zm-9.74 8.65c-.14.15-.17.3-.17.62v.96c0 .32.03.48.17.62.16.19.38.26 1.15.26.77 0 .98-.08 1.15-.26.13-.15.17-.3.17-.62v-.96c0-.32-.04-.48-.17-.62-.17-.19-.38-.26-1.15-.26-.77 0-.99.08-1.15.26zm-5.11 9.05 6.33-.01 6.61 3.5h3.23l.75-.77V93.31H22.3v2.62h3.1v6.27l-1.73.03-6.48-3.53-6.46.01v2.93z"/></svg>