<svg data-name="Layer 1" xmlns="http://www.w3.org/2000/svg" width="46" height="496" viewBox="0 0 46 496"><defs><linearGradient id="a" y1="299.02" x2="46" y2="299.02" gradientUnits="userSpaceOnUse"><stop offset="0" stop-color="#483a1d"/><stop offset=".01" stop-color="#4d3e1f"/><stop offset=".07" stop-color="#7d6432"/><stop offset=".1" stop-color="#8f7339"/><stop offset=".25" stop-color="#bd984b"/><stop offset=".42" stop-color="#edbd5f"/><stop offset=".5" stop-color="#fc6"/><stop offset=".58" stop-color="#edbd5f"/><stop offset=".75" stop-color="#bd984b"/><stop offset=".9" stop-color="#8f7339"/><stop offset="1" stop-color="#483a1d"/></linearGradient><linearGradient id="b" x1="1.16" y1="59.71" x2="44.82" y2="59.71" gradientUnits="userSpaceOnUse"><stop offset="0" stop-color="#999"/><stop offset=".16" stop-color="#bdbdbd"/><stop offset=".39" stop-color="#ededed"/><stop offset=".5" stop-color="#fff"/><stop offset=".61" stop-color="#ededed"/><stop offset=".84" stop-color="#bdbdbd"/><stop offset="1" stop-color="#999"/></linearGradient><linearGradient id="c" x1="22.99" y1="107.11" x2="22.99" y2="12.31" gradientUnits="userSpaceOnUse"><stop offset="0" stop-color="#999"/><stop offset="1" stop-color="#fff"/></linearGradient><linearGradient id="d" x1="1.91" y1="8.54" x2="44.16" y2="8.54" gradientUnits="userSpaceOnUse"><stop offset="0" stop-color="#134a70"/><stop offset=".14" stop-color="#1a6497"/><stop offset=".3" stop-color="#207ebf"/><stop offset=".42" stop-color="#248ed7"/><stop offset=".5" stop-color="#2694e0"/><stop offset=".58" stop-color="#248ed7"/><stop offset=".7" stop-color="#207ebf"/><stop offset=".86" stop-color="#1a6497"/><stop offset="1" stop-color="#134a70"/></linearGradient><linearGradient id="e" x1="23.03" y1="17.09" x2="23.03" gradientUnits="userSpaceOnUse"><stop offset="0" stop-color="#134a70"/><stop offset=".14" stop-color="#144f75"/><stop offset=".32" stop-color="#175c84"/><stop offset=".51" stop-color="#1d739d"/><stop offset=".71" stop-color="#2592bf"/><stop offset=".91" stop-color="#2eb9eb"/><stop offset="1" stop-color="#3cf"/></linearGradient></defs><g data-name="Pull Stick"><path data-name="Shaft" d="M21.1 102a57.8 57.8 0 0 0-19.94 3.53C.85 147.86.46 201.81 0 265.36V496h46V270c-.47-64.76-.87-119.75-1.18-162.84A57.76 57.76 0 0 0 21.1 102Z" fill="url(#a)"/><path data-name="Shadow" d="M21.1 102a57.68 57.68 0 0 0-19.92 3.52v3a58 58 0 0 1 43.66 1.55v-3A57.69 57.69 0 0 0 21.1 102Z" fill-opacity=".3"/><g data-name="Ferrule"><path d="M1.16 105.56a58 58 0 0 1 43.66 1.55c-.3-41.51-.51-72-.64-89.62v-.4a58 58 0 0 0-42.27-1.51 17.17 17.17 0 0 0-.13 1.91c-.12 17.39-.33 47.34-.62 88.07Z" fill="url(#b)"/><path d="M21.1 15.31a54.57 54.57 0 0 1 20.09 3.8c.12 17.15.33 45.51.6 83.54a61.08 61.08 0 0 0-37.6-1.24c.27-38.39.47-66.8.59-83.62a54.69 54.69 0 0 1 16.32-2.48m0-3a57.79 57.79 0 0 0-19.19 3.27 17.17 17.17 0 0 0-.13 1.91c-.12 17.39-.33 47.34-.62 88.07a58 58 0 0 1 43.66 1.55c-.3-41.51-.51-72-.64-89.62v-.4a57.73 57.73 0 0 0-23.08-4.78Z" fill="url(#c)"/></g><g data-name="Tip"><path d="M23 0C3.42 0 1.91 15.58 1.91 15.58a58 58 0 0 1 42.25 1.51S43 0 23 0Z" fill="url(#d)"/><path d="M23 3c7.09 0 12.28 2.35 15.41 7a15.47 15.47 0 0 1 1.24 2.21 61.15 61.15 0 0 0-33.1-1.14 14.56 14.56 0 0 1 1.14-1.72C10.87 5.14 16 3 23 3m0-3C3.42 0 1.91 15.58 1.91 15.58a58 58 0 0 1 42.25 1.51S43 0 23 0Z" fill="url(#e)"/></g></g></svg>